<svg version="1.1" id="Layer_1" xmlns="http://www.w3.org/2000/svg" xmlns:xlink="http://www.w3.org/1999/xlink" x="0px" y="0px"
	 width="100%" viewBox="0 0 120 120" enable-background="new 0 0 120 120" xml:space="preserve">
<path fill="#2B2C84" opacity="1.000000" stroke="none" 
	d="
M75.000000,121.000000 
	C66.645767,121.000000 58.291534,121.000000 49.326107,120.635345 
	C29.358019,115.962311 15.534593,104.773880 6.931954,86.932426 
	C2.292119,77.309631 1.579236,67.090797 2.035072,56.717667 
	C2.857924,37.992638 10.926019,23.159620 26.026577,11.920196 
	C33.587334,6.292684 42.302769,3.778919 51.000000,1.000000 
	C57.354397,1.000000 63.708797,1.000000 70.685883,1.373308 
	C90.579132,3.987890 103.958771,15.102439 113.822304,30.844946 
	C117.069611,36.027752 118.654793,42.251976 121.000000,48.000000 
	C121.000000,56.687565 121.000000,65.375130 120.635345,74.673851 
	C117.610863,89.205444 110.259476,100.545013 99.102295,108.685234 
	C91.904648,113.936615 83.089989,116.971680 75.000000,121.000000 
M99.055176,30.496252 
	C86.988350,16.399075 71.343132,10.001954 53.410492,13.280013 
	C23.555161,18.737522 8.474393,44.818359 14.388932,72.054672 
	C20.984949,102.429169 47.770866,113.332924 72.561050,108.548470 
	C87.984062,105.571861 99.017738,95.864182 105.802864,81.538101 
	C113.415001,65.465866 110.745934,43.529911 99.055176,30.496252 
z"/>
<path fill="#FFFFFF" opacity="1.000000" stroke="none" 
	d="
M50.531342,1.000000 
	C42.302769,3.778919 33.587334,6.292684 26.026577,11.920196 
	C10.926019,23.159620 2.857924,37.992638 2.035072,56.717667 
	C1.579236,67.090797 2.292119,77.309631 6.931954,86.932426 
	C15.534593,104.773880 29.358019,115.962311 48.857456,120.635345 
	C33.032166,121.000000 17.064331,121.000000 1.048248,121.000000 
	C1.048248,81.112625 1.048248,41.225185 1.048248,1.000000 
	C17.352678,1.000000 33.707680,1.000000 50.531342,1.000000 
z"/>
<path fill="#FFFFFF" opacity="1.000000" stroke="none" 
	d="
M121.000000,47.531342 
	C118.654793,42.251976 117.069611,36.027752 113.822304,30.844946 
	C103.958771,15.102439 90.579132,3.987890 71.154282,1.373308 
	C87.591133,1.000000 104.182274,1.000000 121.000000,1.000000 
	C121.000000,16.353485 121.000000,31.708084 121.000000,47.531342 
z"/>
<path fill="#FFFFFF" opacity="1.000000" stroke="none" 
	d="
M75.468658,121.000000 
	C83.089989,116.971680 91.904648,113.936615 99.102295,108.685234 
	C110.259476,100.545013 117.610863,89.205444 120.635345,75.142502 
	C121.000000,90.260048 121.000000,105.520103 121.000000,121.000000 
	C105.979820,121.000000 90.958572,121.000000 75.468658,121.000000 
z"/>
<path fill="#FFFFFF" opacity="1.000000" stroke="none" 
	d="
M99.313370,30.747913 
	C110.745934,43.529911 113.415001,65.465866 105.802864,81.538101 
	C99.017738,95.864182 87.984062,105.571861 72.561050,108.548470 
	C47.770866,113.332924 20.984949,102.429169 14.388932,72.054672 
	C8.474393,44.818359 23.555161,18.737522 53.410492,13.280013 
	C71.343132,10.001954 86.988350,16.399075 99.313370,30.747913 
M75.522987,66.999481 
	C78.851318,66.995346 82.294586,67.507629 85.466698,66.801613 
	C87.508049,66.347267 89.764107,64.413338 90.718033,62.531334 
	C91.207314,61.566021 89.423988,58.287361 88.018280,57.748581 
	C84.332130,56.335758 80.322258,55.605907 76.377907,55.080727 
	C73.351357,54.677753 70.228172,55.000515 66.999741,55.000515 
	C66.999741,52.097229 67.174225,49.924294 66.963165,47.789474 
	C66.532814,43.436359 66.351814,38.967457 65.117729,34.829700 
	C64.622719,33.169979 61.649582,31.376125 59.756054,31.321589 
	C58.545292,31.286716 56.403610,34.201309 56.139786,36.006985 
	C55.243687,42.140076 54.996975,48.368050 54.466717,55.004425 
	C49.416267,55.004425 44.246296,54.564907 39.198929,55.161911 
	C35.938202,55.547588 31.642536,56.073647 32.003338,61.303272 
	C32.330284,66.042213 35.315113,67.202858 39.488499,67.029259 
	C42.977264,66.884132 46.496319,67.229988 49.966400,66.937103 
	C53.706509,66.621437 54.902481,68.318130 55.035267,71.729027 
	C55.226795,76.649040 55.752125,81.555550 55.973763,86.475082 
	C56.135193,90.058220 57.868916,91.829750 61.409908,92.007957 
	C65.151337,92.196236 65.671799,89.386559 65.940857,86.807396 
	C66.618423,80.312454 67.016342,73.788338 67.548012,66.999474 
	C69.939194,66.999474 72.245499,66.999474 75.522987,66.999481 
z"/>
<path fill="#E95614" opacity="1.000000" stroke="none" 
	d="
M75.037399,66.999481 
	C72.245499,66.999474 69.939194,66.999474 67.548012,66.999474 
	C67.016342,73.788338 66.618423,80.312454 65.940857,86.807396 
	C65.671799,89.386559 65.151337,92.196236 61.409908,92.007957 
	C57.868916,91.829750 56.135193,90.058220 55.973763,86.475082 
	C55.752125,81.555550 55.226795,76.649040 55.035267,71.729027 
	C54.902481,68.318130 53.706509,66.621437 49.966400,66.937103 
	C46.496319,67.229988 42.977264,66.884132 39.488499,67.029259 
	C35.315113,67.202858 32.330284,66.042213 32.003338,61.303272 
	C31.642536,56.073647 35.938202,55.547588 39.198929,55.161911 
	C44.246296,54.564907 49.416267,55.004425 54.466717,55.004425 
	C54.996975,48.368050 55.243687,42.140076 56.139786,36.006985 
	C56.403610,34.201309 58.545292,31.286716 59.756054,31.321589 
	C61.649582,31.376125 64.622719,33.169979 65.117729,34.829700 
	C66.351814,38.967457 66.532814,43.436359 66.963165,47.789474 
	C67.174225,49.924294 66.999741,52.097229 66.999741,55.000515 
	C70.228172,55.000515 73.351357,54.677753 76.377907,55.080727 
	C80.322258,55.605907 84.332130,56.335758 88.018280,57.748581 
	C89.423988,58.287361 91.207314,61.566021 90.718033,62.531334 
	C89.764107,64.413338 87.508049,66.347267 85.466698,66.801613 
	C82.294586,67.507629 78.851318,66.995346 75.037399,66.999481 
z"/>
</svg>