<svg version="1.1" id="Layer_1" xmlns="http://www.w3.org/2000/svg" xmlns:xlink="http://www.w3.org/1999/xlink" x="0px" y="0px"
	 width="100%" viewBox="0 0 120 120" enable-background="new 0 0 120 120" xml:space="preserve">
<path fill="#2B2C83" opacity="1.000000" stroke="none" 
	d="
M1.000000,98.000000 
	C1.000000,75.979103 1.000000,53.958210 1.384068,31.299971 
	C2.683988,17.354340 6.953407,13.494010 20.369141,14.374232 
	C22.364950,14.724799 24.009504,14.979988 25.654402,14.982210 
	C43.439552,15.006241 61.224758,14.990499 79.477585,14.990023 
	C81.756165,14.996264 83.569183,15.055435 85.377678,14.989755 
	C92.237358,14.740627 99.095566,14.451079 106.351410,14.110849 
	C114.523796,14.424170 118.224991,19.660028 121.000000,26.000000 
	C121.000000,47.687561 121.000000,69.375122 120.633987,91.678146 
	C119.885025,95.629120 120.001396,99.460144 115.890121,100.536697 
	C112.691086,101.374374 109.286316,101.426430 105.621750,101.616623 
	C99.792969,101.270432 94.313393,100.975815 88.838470,101.045776 
	C83.563507,101.113182 78.293358,101.557243 72.575272,101.913452 
	C70.197113,101.991096 68.264786,101.991096 66.271866,101.991096 
	C66.271866,104.903809 66.271866,107.292305 66.271866,109.999374 
	C72.809547,109.999374 79.082985,110.081558 85.352936,109.969330 
	C89.271355,109.899178 91.722160,111.488762 91.955582,115.487045 
	C92.205238,119.763557 89.204758,120.073952 85.946083,120.057884 
	C84.965637,120.053055 83.982117,120.668633 83.000000,121.000000 
	C66.645775,121.000000 50.291546,121.000000 33.340942,120.647766 
	C31.158897,118.568512 28.738747,117.068428 28.192186,115.058792 
	C27.457287,112.356682 29.400227,110.817848 32.512253,110.811920 
	C35.915230,110.805450 39.312340,110.168068 42.721004,110.033333 
	C46.443668,109.886192 50.176643,109.999870 53.781296,109.999870 
	C53.781296,106.966759 53.781296,104.693893 53.781296,102.010994 
	C40.006119,102.010994 26.439075,101.868370 12.877985,102.090012 
	C8.265655,102.165390 4.098632,101.884277 1.000000,98.000000 
M97.765457,23.638142 
	C97.475113,23.508560 97.224411,23.576025 96.264168,23.992378 
	C95.504768,23.943111 94.745361,23.893847 93.283699,23.417538 
	C85.194031,23.559227 77.104362,23.700916 68.086105,23.992235 
	C52.170105,24.328106 36.254894,24.710800 20.337755,24.979301 
	C12.831032,25.105930 12.016482,25.856756 11.997668,33.588226 
	C11.975380,42.747272 11.913898,51.906227 11.897240,61.065273 
	C11.879171,70.999573 11.893144,80.933929 11.893144,91.000526 
	C17.396564,91.000526 22.053089,90.952095 26.708340,91.008553 
	C52.781635,91.324753 78.855385,91.620819 104.926750,92.056999 
	C108.164459,92.111168 109.896637,91.299042 110.025551,87.823616 
	C110.257736,81.563530 110.982697,75.307327 110.931190,69.054199 
	C110.832970,57.127785 110.261200,45.206093 110.027679,33.279663 
	C109.885315,26.008835 110.000031,26.034231 102.711540,24.961002 
	C101.114067,24.725775 99.557037,24.215862 97.765457,23.638142 
z"/>
<path fill="#FFFFFF" opacity="1.000000" stroke="none" 
	d="
M20.018047,14.161394 
	C6.953407,13.494010 2.683988,17.354340 1.384068,30.831314 
	C1.000000,21.025064 1.000000,11.050127 1.000014,1.068293 
	C41.000034,1.061395 81.000038,1.061395 121.000000,1.061395 
	C121.000000,9.102740 121.000000,17.082691 121.000000,25.531321 
	C118.224991,19.660028 114.523796,14.424170 105.891708,14.035809 
	C96.357735,14.071788 87.680550,14.117008 78.539902,14.086648 
	C58.723637,14.061176 39.370842,14.111285 20.018047,14.161394 
z"/>
<path fill="#FFFFFF" opacity="1.000000" stroke="none" 
	d="
M105.972984,101.827637 
	C109.286316,101.426430 112.691086,101.374374 115.890121,100.536697 
	C120.001396,99.460144 119.885025,95.629120 120.633987,92.146805 
	C121.000000,101.603096 121.000000,111.206192 121.000000,121.000000 
	C108.646423,121.000000 96.291870,121.000000 83.468658,121.000000 
	C83.982117,120.668633 84.965637,120.053055 85.946083,120.057884 
	C89.204758,120.073952 92.205238,119.763557 91.955582,115.487045 
	C91.722160,111.488762 89.271355,109.899178 85.352936,109.969330 
	C79.082985,110.081558 72.809547,109.999374 66.271866,109.999374 
	C66.271866,107.292305 66.271866,104.903809 66.271866,101.991096 
	C68.264786,101.991096 70.197113,101.991096 73.038170,101.982719 
	C84.622261,101.925438 95.297623,101.876534 105.972984,101.827637 
z"/>
<path fill="#FFFFFF" opacity="1.000000" stroke="none" 
	d="
M1.000000,98.468735 
	C4.098632,101.884277 8.265655,102.165390 12.877985,102.090012 
	C26.439075,101.868370 40.006119,102.010994 53.781296,102.010994 
	C53.781296,104.693893 53.781296,106.966759 53.781296,109.999870 
	C50.176643,109.999870 46.443668,109.886192 42.721004,110.033333 
	C39.312340,110.168068 35.915230,110.805450 32.512253,110.811920 
	C29.400227,110.817848 27.457287,112.356682 28.192186,115.058792 
	C28.738747,117.068428 31.158897,118.568512 32.872284,120.647766 
	C22.418955,121.000000 11.837911,121.000000 1.000000,121.000000 
	C1.000000,113.647812 1.000000,106.292641 1.000000,98.468735 
z"/>
<path fill="#FFFFFF" opacity="1.000000" stroke="none" 
	d="
M93.985962,23.844582 
	C94.745361,23.893847 95.504768,23.943111 96.881317,23.976814 
	C97.498459,23.961248 97.981384,23.832447 97.981384,23.832447 
	C99.557037,24.215862 101.114067,24.725775 102.711540,24.961002 
	C110.000031,26.034231 109.885315,26.008835 110.027679,33.279663 
	C110.261200,45.206093 110.832970,57.127785 110.931190,69.054199 
	C110.982697,75.307327 110.257736,81.563530 110.025551,87.823616 
	C109.896637,91.299042 108.164459,92.111168 104.926750,92.056999 
	C78.855385,91.620819 52.781635,91.324753 26.708340,91.008553 
	C22.053089,90.952095 17.396564,91.000526 11.893144,91.000526 
	C11.893144,80.933929 11.879171,70.999573 11.897240,61.065273 
	C11.913898,51.906227 11.975380,42.747272 11.997668,33.588226 
	C12.016482,25.856756 12.831032,25.105930 20.337755,24.979301 
	C36.254894,24.710800 52.170105,24.328106 69.013664,23.987810 
	C77.956139,23.937117 85.971046,23.890850 93.985962,23.844582 
M74.900200,38.408314 
	C69.037704,33.150536 61.215649,32.431450 54.692741,33.677803 
	C47.892879,34.977074 41.124638,38.414280 37.099033,46.022045 
	C30.754908,58.011440 35.021725,74.612946 46.810188,81.116753 
	C52.282768,84.136024 57.800522,84.193153 63.520699,83.952232 
	C70.942886,83.639626 80.828186,75.585548 83.176872,68.401886 
	C86.941833,56.886471 85.085365,46.893654 74.900200,38.408314 
z"/>
<path fill="#252571" opacity="1.000000" stroke="none" 
	d="
M20.369141,14.374232 
	C39.370842,14.111285 58.723637,14.061176 78.540787,14.292501 
	C79.005150,14.573936 79.009949,14.985620 79.009949,14.985620 
	C61.224758,14.990499 43.439552,15.006241 25.654402,14.982210 
	C24.009504,14.979988 22.364950,14.724799 20.369141,14.374232 
z"/>
<path fill="#242670" opacity="1.000000" stroke="none" 
	d="
M105.621750,101.616623 
	C95.297623,101.876534 84.622261,101.925438 73.483994,101.905075 
	C78.293358,101.557243 83.563507,101.113182 88.838470,101.045776 
	C94.313393,100.975815 99.792969,101.270432 105.621750,101.616623 
z"/>
<path fill="#212264" opacity="1.000000" stroke="none" 
	d="
M79.477585,14.990023 
	C79.009949,14.985620 79.005150,14.573936 79.004257,14.368082 
	C87.680550,14.117008 96.357735,14.071788 105.494621,14.101608 
	C99.095566,14.451079 92.237358,14.740627 85.377678,14.989755 
	C83.569183,15.055435 81.756165,14.996264 79.477585,14.990023 
z"/>
<path fill="#272878" opacity="1.000000" stroke="none" 
	d="
M93.634827,23.631060 
	C85.971046,23.890850 77.956139,23.937117 69.477959,23.912994 
	C77.104362,23.700916 85.194031,23.559227 93.634827,23.631060 
z"/>
<path fill="#272878" opacity="1.000000" stroke="none" 
	d="
M97.873421,23.735294 
	C97.981384,23.832447 97.498459,23.961248 97.255905,23.900894 
	C97.224411,23.576025 97.475113,23.508560 97.873421,23.735294 
z"/>
<path fill="#E95614" opacity="1.000000" stroke="none" 
	d="
M75.155945,38.674332 
	C85.085365,46.893654 86.941833,56.886471 83.176872,68.401886 
	C80.828186,75.585548 70.942886,83.639626 63.520699,83.952232 
	C57.800522,84.193153 52.282768,84.136024 46.810188,81.116753 
	C35.021725,74.612946 30.754908,58.011440 37.099033,46.022045 
	C41.124638,38.414280 47.892879,34.977074 54.692741,33.677803 
	C61.215649,32.431450 69.037704,33.150536 75.155945,38.674332 
M72.973969,54.184681 
	C72.646095,53.443604 72.399681,52.652172 71.977577,51.969341 
	C68.323341,46.057961 60.340107,43.083138 54.207172,45.314037 
	C48.714931,47.311878 44.991955,55.019337 46.012016,62.279972 
	C46.782673,67.765343 52.262623,72.728249 57.848709,72.999855 
	C65.864227,73.389580 71.011864,69.895340 72.716766,62.487095 
	C73.264694,60.106178 72.928383,57.521770 72.973969,54.184681 
z"/>
<path fill="#FFFFFF" opacity="1.000000" stroke="none" 
	d="
M72.985291,54.607567 
	C72.928383,57.521770 73.264694,60.106178 72.716766,62.487095 
	C71.011864,69.895340 65.864227,73.389580 57.848709,72.999855 
	C52.262623,72.728249 46.782673,67.765343 46.012016,62.279972 
	C44.991955,55.019337 48.714931,47.311878 54.207172,45.314037 
	C60.340107,43.083138 68.323341,46.057961 71.977577,51.969341 
	C72.399681,52.652172 72.646095,53.443604 72.985291,54.607567 
z"/>
</svg>