<?xml version="1.0" standalone="no"?>
<!DOCTYPE svg PUBLIC "-//W3C//DTD SVG 20010904//EN"
 "http://www.w3.org/TR/2001/REC-SVG-20010904/DTD/svg10.dtd">
<svg version="1.0" xmlns="http://www.w3.org/2000/svg"
 width="120.000000pt" height="120.000000pt" viewBox="0 0 120.000000 120.000000"
 preserveAspectRatio="xMidYMid meet">

<g transform="translate(0.000000,120.000000) scale(0.100000,-0.100000)"
fill="#000000" stroke="none">
<path d="M125 1043 c-46 -24 -76 -54 -96 -98 -17 -36 -19 -69 -19 -316 l0
-276 29 -39 c56 -78 24 -74 557 -74 459 0 478 1 509 20 18 11 44 38 59 60 l26
40 0 232 c-1 293 -8 360 -47 400 -15 16 -45 38 -65 49 -35 18 -63 19 -480 19
-384 -1 -447 -3 -473 -17z m944 -119 c16 -21 21 -41 21 -90 l0 -64 -490 0
-490 0 0 64 c0 49 5 69 21 90 l20 26 449 0 449 0 20 -26z m21 -398 c0 -127 -2
-147 -19 -167 l-19 -24 -451 1 c-424 0 -451 1 -471 19 -18 17 -20 30 -20 167
l0 148 490 0 490 0 0 -144z"/>
<path d="M760 471 c-13 -26 -3 -50 24 -57 11 -2 64 -4 116 -2 l95 3 3 29 c2
16 -2 32 -10 37 -7 5 -59 9 -115 9 -91 0 -103 -2 -113 -19z"/>
</g>
</svg>
