<?xml version="1.0" standalone="no"?>
<!DOCTYPE svg PUBLIC "-//W3C//DTD SVG 20010904//EN"
 "http://www.w3.org/TR/2001/REC-SVG-20010904/DTD/svg10.dtd">
<svg version="1.0" xmlns="http://www.w3.org/2000/svg"
 width="512.000000pt" height="512.000000pt" viewBox="0 0 512.000000 512.000000"
 preserveAspectRatio="xMidYMid meet">

<g transform="translate(0.000000,512.000000) scale(0.100000,-0.100000)"
fill="#000000" stroke="none">
<path d="M1467 5109 c-555 -64 -1049 -412 -1296 -913 -195 -396 -223 -839 -80
-1270 51 -151 171 -367 280 -500 26 -33 46 -63 43 -68 -3 -4 -88 -72 -190
-150 -102 -78 -193 -153 -202 -167 -11 -15 -17 -46 -17 -77 0 -57 18 -91 69
-128 27 -21 37 -21 812 -24 l784 -2 0 -108 c1 -629 374 -1227 944 -1512 203
-102 381 -155 601 -180 53 -6 438 -10 940 -10 809 0 852 1 885 19 42 22 80 83
80 129 0 69 -23 94 -236 257 -112 86 -204 158 -204 160 0 3 37 54 83 114 220
291 337 613 354 976 21 463 -153 923 -476 1258 -211 219 -426 356 -699 447
-171 57 -302 81 -479 87 -147 6 -153 7 -153 27 0 60 -23 252 -40 334 -126 606
-599 1102 -1197 1257 -187 49 -422 66 -606 44z m380 -305 c514 -76 941 -439
1097 -932 33 -104 52 -216 61 -354 l7 -106 -73 -21 c-186 -53 -417 -164 -554
-266 -32 -25 -62 -41 -66 -37 -4 4 -127 246 -275 537 -147 292 -278 540 -290
552 -12 12 -41 27 -64 33 -36 10 -50 9 -87 -5 -24 -9 -53 -29 -63 -43 -11 -15
-156 -301 -321 -637 -201 -405 -303 -623 -306 -650 -9 -82 61 -155 147 -155
77 0 105 26 178 168 l63 122 359 0 360 0 36 -73 37 -74 -66 -86 c-141 -184
-248 -403 -307 -624 l-11 -43 -557 0 -557 1 26 22 c14 12 54 44 88 70 65 50
91 92 91 147 0 45 -13 64 -110 167 -192 203 -314 436 -367 701 -13 63 -17 134
-17 257 0 148 4 185 27 282 62 269 193 502 383 683 306 292 720 426 1131 364z
m12 -1486 c1 -5 -91 -8 -204 -8 -113 0 -205 2 -205 5 0 3 46 97 102 210 l103
205 102 -202 c56 -112 102 -206 102 -210z m1826 -196 c941 -204 1418 -1246
954 -2087 -64 -116 -129 -203 -245 -325 -93 -99 -94 -100 -94 -150 0 -72 19
-100 112 -172 45 -35 89 -69 98 -76 12 -10 -115 -11 -645 -9 -623 3 -665 5
-750 24 -295 67 -524 191 -725 393 -204 204 -341 458 -397 738 -25 125 -25
424 1 542 64 293 186 521 391 726 125 125 225 199 371 273 143 71 294 118 469
145 75 11 372 -3 460 -22z"/>
<path d="M3347 2466 c-79 -29 -106 -81 -107 -203 l0 -83 -235 0 c-264 0 -284
-4 -331 -65 -35 -47 -39 -120 -8 -162 43 -57 68 -68 177 -73 l102 -5 3 -30
c13 -149 88 -343 178 -462 13 -17 24 -36 24 -41 0 -23 -137 -54 -266 -61 -103
-6 -138 -12 -165 -27 -97 -57 -95 -205 4 -258 29 -16 52 -18 177 -13 174 5
262 26 400 95 l94 47 96 -48 c137 -68 225 -89 400 -94 133 -4 148 -2 178 16
70 45 93 137 50 201 -45 65 -64 73 -210 81 -120 7 -211 24 -260 50 -16 9 -14
14 16 57 84 117 145 269 167 411 l12 81 91 0 c67 0 100 5 126 18 107 53 107
211 0 264 -30 16 -67 18 -277 18 l-241 0 -4 103 c-2 83 -7 107 -23 129 -41 54
-107 76 -168 54z m189 -623 c-13 -77 -50 -175 -90 -240 -23 -38 -46 -68 -51
-68 -16 0 -80 104 -108 175 -14 36 -29 89 -33 118 l-7 52 148 0 147 0 -6 -37z"/>
</g>
</svg>
