<?xml version="1.0" standalone="no"?>
<!DOCTYPE svg PUBLIC "-//W3C//DTD SVG 20010904//EN"
 "http://www.w3.org/TR/2001/REC-SVG-20010904/DTD/svg10.dtd">
<svg version="1.0" xmlns="http://www.w3.org/2000/svg"
 width="512.000000pt" height="512.000000pt" viewBox="0 0 512.000000 512.000000"
 preserveAspectRatio="xMidYMid meet">

<g transform="translate(0.000000,512.000000) scale(0.100000,-0.100000)"
fill="#000000" stroke="none">
<path d="M2420 5113 c-124 -19 -267 -86 -358 -169 -223 -202 -286 -535 -152
-806 82 -165 224 -286 405 -345 65 -21 101 -26 190 -27 134 -1 192 12 314 72
158 77 278 213 338 384 35 99 43 262 18 373 -42 190 -177 361 -355 449 -132
65 -272 89 -400 69z m253 -336 c98 -45 170 -128 201 -236 54 -184 -48 -382
-231 -451 -80 -30 -204 -25 -283 11 -151 70 -242 246 -210 408 46 238 301 370
523 268z"/>
<path d="M1130 3656 l0 -324 -77 -57 c-167 -125 -333 -319 -432 -506 l-52 -99
-215 0 -214 0 0 -630 0 -630 214 0 214 0 67 -120 c181 -321 468 -569 805 -695
l85 -32 3 -281 2 -282 430 0 430 0 0 245 0 245 125 0 125 0 0 -245 0 -245 430
0 430 0 2 281 3 281 75 28 c416 152 750 481 911 899 34 89 76 251 87 336 l7
60 198 3 197 2 0 150 0 150 -194 0 c-219 0 -199 -8 -211 85 -4 28 -18 93 -31
145 -126 508 -507 917 -1009 1088 -216 74 -323 82 -1035 82 l-587 0 -36 59
c-53 86 -119 154 -199 207 -133 88 -259 124 -439 124 l-109 0 0 -324z m387
-60 c87 -64 127 -130 169 -279 l16 -58 61 8 c34 4 379 8 767 8 l705 0 93 -24
c362 -91 646 -311 816 -632 75 -142 114 -265 136 -432 47 -365 -83 -746 -348
-1015 -185 -188 -367 -283 -689 -362 l-43 -11 0 -249 0 -250 -125 0 -125 0 -2
248 -3 247 -430 0 -430 0 -3 -247 -2 -248 -125 0 -125 0 0 250 0 249 -42 11
c-223 55 -359 110 -498 201 -84 55 -284 255 -339 339 -49 75 -103 184 -141
285 l-27 70 -172 3 -171 2 0 330 0 330 170 2 171 3 42 105 c107 268 263 457
501 611 50 33 97 64 104 69 9 8 12 70 12 245 0 131 4 235 9 235 5 0 35 -20 68
-44z"/>
<path d="M1910 2920 l0 -150 610 0 610 0 0 150 0 150 -610 0 -610 0 0 -150z"/>
<path d="M1254 2681 c-75 -18 -124 -82 -124 -161 0 -152 172 -220 281 -111
115 115 2 310 -157 272z"/>
</g>
</svg>
