<?xml version="1.0" standalone="no"?>
<!DOCTYPE svg PUBLIC "-//W3C//DTD SVG 20010904//EN"
 "http://www.w3.org/TR/2001/REC-SVG-20010904/DTD/svg10.dtd">
<svg version="1.0" xmlns="http://www.w3.org/2000/svg"
 width="512.000000pt" height="512.000000pt" viewBox="0 0 512.000000 512.000000"
 preserveAspectRatio="xMidYMid meet">

<g transform="translate(0.000000,512.000000) scale(0.100000,-0.100000)"
fill="#000000" stroke="none">
<path d="M2460 4934 c-273 -47 -453 -136 -619 -306 -526 -538 -326 -1430 379
-1695 240 -90 523 -83 767 18 235 98 460 331 554 574 93 238 92 528 0 759
-155 388 -513 638 -931 651 -69 2 -136 2 -150 -1z m243 -115 c220 -33 396
-125 549 -287 110 -118 180 -245 224 -409 29 -106 27 -351 -4 -458 -91 -321
-344 -571 -662 -657 -119 -32 -346 -32 -465 0 -89 25 -221 85 -291 133 -186
128 -331 345 -382 574 -21 95 -20 298 1 387 67 274 230 489 469 618 92 49 141
67 248 90 98 21 210 25 313 9z"/>
<path d="M823 4289 c-48 -24 -99 -77 -119 -125 -23 -55 -18 -142 12 -203 27
-53 85 -106 131 -117 l23 -6 0 -772 c0 -682 2 -774 16 -794 15 -22 18 -22 270
-22 140 0 254 -2 254 -4 0 -2 -32 -37 -71 -77 -127 -133 -263 -332 -326 -478
l-24 -56 -280 3 -279 3 0 809 0 808 29 7 c52 11 118 61 148 112 24 41 28 58
28 123 0 83 -14 117 -67 170 -88 89 -233 94 -328 12 -106 -90 -114 -244 -19
-347 22 -23 53 -48 69 -55 l30 -12 0 -853 c0 -813 1 -853 18 -868 16 -15 53
-17 314 -17 l296 0 -24 -82 c-27 -94 -54 -236 -54 -289 0 -70 -6 -69 388 -69
l352 0 0 -65 c0 -127 37 -155 202 -155 l103 0 -77 -77 c-132 -133 -130 -150
36 -321 66 -68 133 -130 148 -138 15 -8 46 -14 69 -14 38 0 47 6 125 82 l84
82 0 -103 c0 -111 13 -158 51 -185 34 -23 413 -24 447 0 41 29 52 65 52 181
l0 108 78 -77 c135 -135 150 -132 333 51 183 183 186 198 51 334 l-77 77 111
0 c99 0 115 2 145 23 40 27 58 71 58 145 l1 52 339 0 c194 0 351 4 365 10 14
5 28 20 31 33 10 38 -27 235 -71 380 -5 16 13 17 274 17 257 0 280 1 295 18
16 17 17 92 17 869 l0 850 23 10 c77 35 137 130 137 218 -1 87 -54 176 -130
215 -130 66 -293 -2 -334 -141 -20 -66 -20 -82 0 -148 20 -68 87 -137 150
-153 l44 -12 0 -808 0 -808 -262 0 -263 1 -40 87 c-61 131 -180 305 -290 420
l-97 102 240 0 c238 0 241 0 256 22 14 20 16 112 16 794 l0 772 23 5 c44 12
105 67 131 119 60 121 12 270 -107 327 -51 25 -150 28 -200 8 -120 -51 -181
-206 -128 -323 23 -51 83 -110 127 -124 l34 -12 0 -739 0 -739 -262 0 -263 0
-85 56 c-570 373 -1329 370 -1892 -8 -54 -36 -98 -62 -98 -57 0 5 -119 9 -270
9 l-270 0 0 739 0 739 23 6 c46 11 104 64 131 117 62 126 6 282 -121 336 -50
20 -150 17 -200 -8z m198 -125 c111 -106 -15 -279 -152 -209 -124 65 -66 254
74 242 35 -3 56 -12 78 -33z m3236 16 c72 -43 84 -144 24 -204 -28 -28 -37
-31 -92 -31 -57 0 -62 2 -95 37 -27 30 -34 46 -34 78 0 79 57 140 130 140 19
0 49 -9 67 -20z m-3770 -594 c41 -45 50 -79 32 -130 -36 -102 -187 -117 -235
-24 -71 137 100 267 203 154z m4300 24 c64 -39 84 -111 49 -178 -48 -93 -199
-78 -235 24 -17 48 -10 82 26 124 44 53 104 65 160 30z m-1937 -1050 c306 -50
605 -200 832 -419 191 -183 314 -367 403 -606 32 -87 85 -285 85 -322 0 -10
-69 -13 -310 -13 l-310 0 0 65 c0 127 -35 155 -195 155 -58 0 -105 3 -105 7 0
4 33 41 74 83 77 79 93 110 81 158 -9 36 -271 298 -307 307 -48 12 -79 -4
-158 -81 -42 -41 -79 -74 -83 -74 -4 0 -7 48 -7 106 0 181 -18 194 -269 194
-256 0 -273 -12 -280 -193 l-3 -108 -77 75 c-83 80 -121 97 -176 76 -34 -13
-260 -231 -281 -272 -19 -36 -18 -88 2 -118 9 -14 46 -55 82 -92 l65 -66 -121
-4 c-117 -3 -123 -4 -149 -31 -25 -24 -28 -36 -31 -107 l-4 -80 -313 0 -313 0
15 75 c81 431 340 816 708 1053 89 58 267 143 367 176 244 80 512 99 778 56z
m-110 -661 c0 -127 12 -158 68 -185 57 -27 93 -13 183 73 l80 77 114 -114 115
-115 -83 -83 c-78 -79 -82 -85 -82 -127 0 -37 6 -50 33 -77 32 -33 33 -33 147
-36 l114 -4 6 -41 c3 -23 5 -96 3 -162 l-3 -120 -121 -5 c-133 -5 -147 -11
-171 -69 -23 -55 -9 -88 78 -176 l78 -81 -114 -114 -114 -114 -84 82 c-81 79
-86 82 -131 82 -36 0 -52 -6 -78 -29 l-33 -29 -3 -121 -4 -121 -158 0 -157 0
-5 113 c-5 121 -16 154 -64 175 -60 28 -88 17 -181 -69 l-87 -80 -113 113
-113 113 64 65 c35 36 71 76 80 90 19 29 21 78 4 114 -21 48 -54 59 -175 64
l-113 5 0 157 0 158 121 4 121 3 29 33 c23 26 29 42 29 78 0 45 -3 50 -82 131
l-82 84 114 114 114 114 81 -78 c89 -87 121 -101 178 -77 58 24 70 53 75 182
l5 114 158 0 159 0 0 -111z"/>
<path d="M2436 1675 c-304 -84 -479 -416 -372 -709 45 -124 141 -238 253 -299
64 -34 190 -67 257 -67 225 1 436 148 514 359 33 90 41 230 17 321 -49 189
-205 346 -390 395 -72 18 -212 18 -279 0z m265 -111 c93 -27 167 -80 230 -164
87 -116 105 -298 41 -433 -82 -175 -274 -279 -458 -249 -240 40 -407 269 -365
500 31 166 146 297 306 348 57 18 181 17 246 -2z"/>
</g>
</svg>
