<svg version="1.1" id="Layer_1" xmlns="http://www.w3.org/2000/svg" xmlns:xlink="http://www.w3.org/1999/xlink" x="0px" y="0px"
	 width="100%" viewBox="0 0 120 120" enable-background="new 0 0 120 120" xml:space="preserve">
<path fill="#2B2C84" opacity="1.000000" stroke="none" 
	d="
M121.000000,47.000000 
	C121.000000,62.687561 121.000000,78.375122 120.650879,94.645981 
	C119.024406,100.689377 115.206299,103.481155 110.134071,105.038582 
	C108.175705,105.639900 105.730209,105.949409 104.471008,107.294579 
	C100.406029,111.637169 96.789421,116.399467 93.000000,121.000000 
	C66.645775,121.000000 40.291542,121.000000 13.365191,120.669212 
	C8.862045,115.892281 4.931024,111.446144 1.000001,107.000000 
	C1.000000,79.979103 1.000000,52.958210 1.357887,25.334892 
	C3.307025,14.198479 10.226057,9.476568 23.390289,10.398523 
	C43.529968,10.715099 63.329857,10.812228 83.129868,10.865248 
	C83.737053,10.866874 84.345474,10.409822 85.365189,10.092655 
	C103.777031,11.192236 103.689079,25.234831 105.541588,38.031761 
	C113.116280,36.875957 116.926109,42.160702 121.000000,47.000000 
M18.081491,23.002811 
	C14.496594,23.762318 12.911966,25.922777 12.972122,29.631271 
	C13.359724,53.526356 13.685863,77.422508 13.981323,101.318939 
	C14.026955,105.009644 15.891339,107.318985 19.298491,107.896111 
	C23.323065,108.577820 27.445719,108.885101 31.532524,108.952988 
	C40.518921,109.102249 49.511940,109.128822 58.497707,108.961464 
	C67.249916,108.798454 76.002998,108.443993 84.741913,107.936264 
	C87.765022,107.760628 90.673523,106.644196 90.968880,102.920052 
	C91.410988,97.345444 91.914703,91.757599 91.952759,86.172394 
	C92.076378,68.029015 92.000732,49.884262 92.000648,31.740040 
	C92.000610,24.669302 90.379387,23.006010 83.401909,23.003145 
	C61.928474,22.994328 40.455032,22.999655 18.081491,23.002811 
M108.995834,74.492378 
	C108.995834,66.713432 108.995834,58.934483 108.995834,50.994572 
	C104.693901,52.446659 103.124245,73.451805 106.031326,92.739525 
	C107.386086,90.802704 108.653976,88.689522 108.892593,86.465889 
	C109.281204,82.844414 108.997330,79.150787 108.995834,74.492378 
z"/>
<path fill="#FFFFFF" opacity="1.000000" stroke="none" 
	d="
M23.050522,10.172518 
	C10.226057,9.476568 3.307025,14.198479 1.357887,24.866234 
	C1.000000,17.018461 1.000000,9.036922 1.000000,1.027691 
	C40.889221,1.027691 80.778465,1.027691 121.000000,1.027691 
	C121.000000,16.019260 121.000000,31.040972 121.000000,46.531342 
	C116.926109,42.160702 113.116280,36.875957 105.541588,38.031761 
	C103.689079,25.234831 103.777031,11.192236 84.904266,10.024988 
	C63.704494,10.078359 43.377506,10.125439 23.050522,10.172518 
z"/>
<path fill="#FFFFFF" opacity="1.000000" stroke="none" 
	d="
M93.468658,121.000000 
	C96.789421,116.399467 100.406029,111.637169 104.471008,107.294579 
	C105.730209,105.949409 108.175705,105.639900 110.134071,105.038582 
	C115.206299,103.481155 119.024406,100.689377 120.650879,95.114639 
	C121.000000,103.595825 121.000000,112.191650 121.000000,121.000000 
	C111.980217,121.000000 102.958763,121.000000 93.468658,121.000000 
z"/>
<path fill="#FFFFFF" opacity="1.000000" stroke="none" 
	d="
M1.000001,107.474129 
	C4.931024,111.446144 8.862045,115.892281 12.896534,120.669212 
	C9.070314,121.000000 5.140630,121.000000 1.000000,121.000000 
	C1.000000,116.650841 1.000000,112.299553 1.000001,107.474129 
z"/>
<path fill="#FFFFFF" opacity="1.000000" stroke="none" 
	d="
M18.531544,23.001148 
	C40.455032,22.999655 61.928474,22.994328 83.401909,23.003145 
	C90.379387,23.006010 92.000610,24.669302 92.000648,31.740040 
	C92.000732,49.884262 92.076378,68.029015 91.952759,86.172394 
	C91.914703,91.757599 91.410988,97.345444 90.968880,102.920052 
	C90.673523,106.644196 87.765022,107.760628 84.741913,107.936264 
	C76.002998,108.443993 67.249916,108.798454 58.497707,108.961464 
	C49.511940,109.128822 40.518921,109.102249 31.532524,108.952988 
	C27.445719,108.885101 23.323065,108.577820 19.298491,107.896111 
	C15.891339,107.318985 14.026955,105.009644 13.981323,101.318939 
	C13.685863,77.422508 13.359724,53.526356 12.972122,29.631271 
	C12.911966,25.922777 14.496594,23.762318 18.531544,23.001148 
M37.627792,38.999619 
	C34.559086,39.414604 31.151150,39.166759 28.551081,40.497437 
	C27.033028,41.274349 25.966484,44.699444 26.263691,46.700394 
	C26.502880,48.310719 29.067911,50.766403 30.646219,50.801311 
	C45.155983,51.122204 59.679546,51.152760 74.186943,50.786655 
	C75.834808,50.745071 78.041046,48.008839 78.859695,46.050323 
	C79.946114,43.451206 78.617691,41.421093 75.431778,40.954224 
	C71.964203,40.446083 68.552147,39.189743 65.090485,39.082920 
	C56.266743,38.810616 47.428841,38.996998 37.627792,38.999619 
M72.984085,68.001999 
	C61.819035,68.001236 50.653191,67.927109 39.489441,68.047318 
	C36.400723,68.080574 33.260777,68.433441 30.247541,69.103683 
	C26.553862,69.925270 26.390293,73.236702 27.190327,75.869904 
	C27.695362,77.532158 29.968077,79.749771 31.537994,79.824455 
	C44.952011,80.462601 58.393021,80.516777 71.811615,81.084610 
	C76.388885,81.278313 79.097198,78.786072 79.690392,75.240875 
	C80.276794,71.736298 77.827919,68.810684 72.984085,68.001999 
z"/>
<path fill="#FFFFFF" opacity="1.000000" stroke="none" 
	d="
M108.996544,74.989990 
	C108.997330,79.150787 109.281204,82.844414 108.892593,86.465889 
	C108.653976,88.689522 107.386086,90.802704 106.031326,92.739525 
	C103.124245,73.451805 104.693901,52.446659 108.995834,50.994572 
	C108.995834,58.934483 108.995834,66.713432 108.996544,74.989990 
z"/>
<path fill="#1B1D55" opacity="1.000000" stroke="none" 
	d="
M23.390289,10.398523 
	C43.377506,10.125439 63.704494,10.078359 84.492401,10.098946 
	C84.345474,10.409822 83.737053,10.866874 83.129868,10.865248 
	C63.329857,10.812228 43.529968,10.715099 23.390289,10.398523 
z"/>
<path fill="#2C2C83" opacity="1.000000" stroke="none" 
	d="
M38.112198,38.999725 
	C47.428841,38.996998 56.266743,38.810616 65.090485,39.082920 
	C68.552147,39.189743 71.964203,40.446083 75.431778,40.954224 
	C78.617691,41.421093 79.946114,43.451206 78.859695,46.050323 
	C78.041046,48.008839 75.834808,50.745071 74.186943,50.786655 
	C59.679546,51.152760 45.155983,51.122204 30.646219,50.801311 
	C29.067911,50.766403 26.502880,48.310719 26.263691,46.700394 
	C25.966484,44.699444 27.033028,41.274349 28.551081,40.497437 
	C31.151150,39.166759 34.559086,39.414604 38.112198,38.999725 
z"/>
<path fill="#EA5614" opacity="1.000000" stroke="none" 
	d="
M73.423798,68.003265 
	C77.827919,68.810684 80.276794,71.736298 79.690392,75.240875 
	C79.097198,78.786072 76.388885,81.278313 71.811615,81.084610 
	C58.393021,80.516777 44.952011,80.462601 31.537994,79.824455 
	C29.968077,79.749771 27.695362,77.532158 27.190327,75.869904 
	C26.390293,73.236702 26.553862,69.925270 30.247541,69.103683 
	C33.260777,68.433441 36.400723,68.080574 39.489441,68.047318 
	C50.653191,67.927109 61.819035,68.001236 73.423798,68.003265 
z"/>
</svg>