<?xml version="1.0" standalone="no"?>
<!DOCTYPE svg PUBLIC "-//W3C//DTD SVG 20010904//EN"
 "http://www.w3.org/TR/2001/REC-SVG-20010904/DTD/svg10.dtd">
<svg version="1.0" xmlns="http://www.w3.org/2000/svg"
 width="120.000000pt" height="120.000000pt" viewBox="0 0 120.000000 120.000000"
 preserveAspectRatio="xMidYMid meet">

<g transform="translate(0.000000,120.000000) scale(0.100000,-0.100000)"
fill="#000000" stroke="none">
<path d="M455 1171 c-106 -31 -185 -78 -266 -160 -125 -125 -177 -265 -165
-446 10 -165 50 -258 162 -375 122 -128 244 -180 419 -180 182 0 291 45 420
175 84 84 134 166 154 255 6 25 11 98 11 163 0 93 -4 131 -21 180 -64 191
-227 342 -424 392 -78 20 -214 18 -290 -4z m305 -118 c61 -21 171 -95 216
-146 54 -62 92 -151 105 -243 28 -195 -64 -386 -233 -482 -189 -108 -450 -68
-594 91 -130 144 -159 374 -69 546 66 126 200 228 327 250 66 12 188 3 248
-16z"/>
<path d="M402 798 c-23 -23 -12 -46 58 -123 39 -42 70 -81 70 -85 0 -4 -25
-35 -55 -69 -30 -34 -62 -73 -71 -87 -16 -23 -15 -26 1 -44 10 -11 22 -20 28
-20 5 0 44 34 86 75 43 41 81 75 86 75 4 0 41 -32 82 -71 60 -56 80 -70 101
-67 19 2 28 10 30 26 3 17 -15 42 -71 100 l-75 76 72 81 c86 95 93 109 64 129
-28 20 -41 12 -132 -74 l-72 -69 -65 65 c-53 54 -105 94 -122 94 -1 0 -8 -5
-15 -12z"/>
</g>
</svg>
