<?xml version="1.0" standalone="no"?>
<!DOCTYPE svg PUBLIC "-//W3C//DTD SVG 20010904//EN"
 "http://www.w3.org/TR/2001/REC-SVG-20010904/DTD/svg10.dtd">
<svg version="1.0" xmlns="http://www.w3.org/2000/svg"
 width="512.000000pt" height="512.000000pt" viewBox="0 0 512.000000 512.000000"
 preserveAspectRatio="xMidYMid meet">

<g transform="translate(0.000000,512.000000) scale(0.100000,-0.100000)"
fill="#000000" stroke="none">
<path d="M4611 5109 c-79 -15 -163 -63 -241 -136 l-76 -71 -31 29 c-42 37 -92
46 -146 25 -34 -13 -379 -353 -1848 -1823 l-1806 -1808 -41 -85 c-90 -185 -92
-372 -5 -544 l25 -49 -211 -211 c-203 -204 -231 -239 -231 -292 0 -68 77 -144
145 -144 53 0 95 33 294 233 l205 206 27 -14 c83 -43 211 -75 298 -75 78 0
182 28 271 71 l85 41 1808 1807 c1469 1468 1810 1814 1823 1848 21 54 12 104
-25 146 l-29 31 71 76 c114 122 161 253 139 386 -40 241 -265 400 -501 353z
m174 -325 c63 -62 52 -132 -34 -218 l-61 -61 -92 93 -93 92 61 61 c87 87 155
97 219 33z m-390 -394 l220 -220 -1608 -1608 -1607 -1607 -222 223 -223 222
1605 1605 c883 883 1607 1605 1610 1605 3 0 104 -99 225 -220z m-3225 -3665
c-11 -12 -40 -32 -65 -44 -189 -95 -415 18 -453 227 -16 88 14 197 71 260 l21
23 223 -223 222 -222 -19 -21z"/>
</g>
</svg>
