<?xml version="1.0" standalone="no"?>
<!DOCTYPE svg PUBLIC "-//W3C//DTD SVG 20010904//EN"
 "http://www.w3.org/TR/2001/REC-SVG-20010904/DTD/svg10.dtd">
<svg version="1.0" xmlns="http://www.w3.org/2000/svg"
 width="120.000000pt" height="120.000000pt" viewBox="0 0 120.000000 120.000000"
 preserveAspectRatio="xMidYMid meet">

<g transform="translate(0.000000,120.000000) scale(0.100000,-0.100000)"
fill="#000000" stroke="none">
<path d="M30 1080 c-13 -8 -15 -65 -15 -414 0 -309 3 -408 12 -417 9 -9 69
-15 180 -20 194 -9 266 -25 340 -76 l53 -35 52 35 c74 51 146 67 345 76 94 5
176 12 182 15 8 5 11 131 11 415 0 354 -2 410 -15 421 -18 15 -290 6 -365 -12
-48 -12 -148 -55 -191 -84 -25 -16 -27 -16 -68 14 -56 41 -146 69 -256 82
-113 12 -245 13 -265 0z m381 -99 c36 -11 84 -34 107 -51 l42 -30 0 -326 c0
-306 -1 -326 -17 -321 -104 34 -175 48 -291 57 -76 5 -143 10 -149 10 -10 0
-13 76 -13 346 l0 347 128 -6 c88 -4 147 -12 193 -26z m707 -318 l2 -341 -67
-6 c-229 -20 -289 -29 -349 -50 l-64 -24 0 329 0 329 41 29 c76 56 180 80 334
77 l100 -1 3 -342z"/>
<path d="M171 772 c-13 -24 -6 -48 17 -57 9 -4 74 -10 144 -13 135 -5 158 1
158 39 0 28 -31 36 -177 44 -126 7 -131 7 -142 -13z"/>
<path d="M175 594 c-18 -19 -19 -25 -2 -48 10 -14 37 -19 145 -26 73 -5 139
-7 147 -4 20 8 29 42 15 59 -12 14 -57 21 -202 29 -70 4 -91 2 -103 -10z"/>
<path d="M788 781 c-65 -7 -81 -18 -76 -52 3 -24 4 -24 128 -23 78 0 133 5
148 13 24 13 29 40 10 59 -13 13 -107 14 -210 3z"/>
<path d="M760 593 c-33 -6 -50 -21 -50 -44 0 -35 39 -42 165 -32 129 11 156
23 136 62 -11 20 -19 21 -119 20 -59 -1 -118 -4 -132 -6z"/>
</g>
</svg>
