<svg version="1.1" id="Layer_1" xmlns="http://www.w3.org/2000/svg" xmlns:xlink="http://www.w3.org/1999/xlink" x="0px" y="0px"
	 width="100%" viewBox="0 0 120 120" enable-background="new 0 0 120 120" xml:space="preserve">
<path fill="#FFFFFF" opacity="1.000000" stroke="none" 
	d="
M121.000000,49.000000 
	C121.000000,73.333328 121.000000,97.166664 121.000000,121.000000 
	C81.000008,121.000000 41.000015,121.000000 1.000017,121.000000 
	C1.000011,81.000015 1.000011,41.000027 1.000006,1.000028 
	C40.999981,1.000019 80.999962,1.000019 120.999969,1.000009 
	C121.000000,16.833334 121.000000,32.666668 121.000000,49.000000 
M67.973442,22.029661 
	C67.973442,22.029661 67.894501,22.038336 68.064774,22.533472 
	C68.365486,22.633348 68.666199,22.733225 69.652222,23.155970 
	C71.490982,22.878851 73.671982,23.097565 75.046944,22.148508 
	C75.948196,21.526428 76.467636,18.512976 75.809677,17.778540 
	C72.401001,13.973665 68.936691,9.927053 62.700474,9.253140 
	C56.199913,7.219831 49.900646,7.423881 43.979015,10.957666 
	C43.979015,10.957666 43.977684,10.877370 43.350903,10.982617 
	C42.872681,11.305195 42.394459,11.627771 41.985622,11.981457 
	C41.985622,11.981457 41.972889,11.906490 41.442436,12.053177 
	C41.263538,12.359707 41.084637,12.666238 40.983555,12.982902 
	C40.983555,12.982902 40.986244,12.904472 40.343578,12.988101 
	C39.849899,13.314312 39.356220,13.640523 38.332779,14.147330 
	C37.877319,14.719678 37.421860,15.292025 36.412266,16.098074 
	C35.997101,16.728952 35.581936,17.359833 35.023411,18.740124 
	C36.905342,24.443226 38.373962,24.899590 45.592842,21.861805 
	C46.096748,21.259914 46.600655,20.658022 47.024776,20.035728 
	C47.024776,20.035728 47.017883,20.117790 47.660992,20.013058 
	C48.156693,19.685650 48.652390,19.358242 49.573940,18.995275 
	C49.573940,18.995275 49.975967,18.850388 50.807537,18.955851 
	C53.869644,18.676098 56.931751,18.396345 59.984909,18.033112 
	C59.984909,18.033112 59.903381,18.053165 60.182846,18.634827 
	C60.799358,18.708696 61.415874,18.782566 62.425499,18.998470 
	C62.425499,18.998470 62.842377,19.028851 63.131531,19.613497 
	C63.748695,19.781086 64.365860,19.948677 64.980026,20.036427 
	C64.980026,20.036427 64.901718,20.052246 65.166016,20.631414 
	C65.771759,20.792004 66.377510,20.952595 66.984070,21.022650 
	C66.984070,21.022650 66.893867,21.030470 67.056961,21.555103 
	C67.361168,21.739733 67.665375,21.924360 67.973442,22.029661 
M42.034733,64.958847 
	C42.034733,64.958847 42.136047,64.955093 41.947983,64.438698 
	C41.645836,64.247231 41.343685,64.055756 41.033504,63.965710 
	C41.033504,63.965710 41.134995,63.958622 40.944389,63.437256 
	C40.641346,63.238941 40.338303,63.040627 39.749283,62.174843 
	C36.707165,58.561028 29.027534,56.650860 25.840336,58.715244 
	C19.795582,62.630489 17.874348,69.864471 21.838699,76.289001 
	C28.867140,87.679123 36.163383,98.911942 43.685989,109.980583 
	C44.812840,111.638618 47.774960,112.049347 50.334423,113.800064 
	C60.212887,113.805840 70.091347,113.811607 80.681473,113.743980 
	C82.645958,112.468948 84.990639,111.532211 86.491936,109.845016 
	C89.207634,106.793030 91.419960,103.293144 94.004898,99.520721 
	C94.004898,99.520721 94.120552,99.047211 94.038651,99.030861 
	C94.038651,99.030861 94.066093,99.109741 94.646324,98.846420 
	C94.805511,98.240517 94.964699,97.634613 95.043373,97.028290 
	C95.043373,97.028290 95.059097,97.107239 95.625046,96.825829 
	C95.798622,96.226631 95.972206,95.627434 96.051834,95.027885 
	C96.051834,95.027885 96.069580,95.120148 96.652466,94.857208 
	C96.814278,94.249985 96.976089,93.642769 97.052635,93.031311 
	C97.052635,93.031311 97.067345,93.115395 97.640900,92.843124 
	C97.805542,92.240349 97.970184,91.637566 98.052307,91.029640 
	C98.052307,91.029640 98.065620,91.111237 98.802505,90.632095 
	C98.870644,82.212318 98.987526,73.792381 98.961678,65.372894 
	C98.957062,63.869484 98.361305,62.367893 98.005081,60.412834 
	C98.005081,60.412834 97.852158,59.985516 97.991974,59.350620 
	C97.690628,58.855362 97.389282,58.360104 97.062523,57.948811 
	C97.062523,57.948811 97.149078,57.934505 96.950706,57.423485 
	C96.633591,57.325325 96.316467,57.227165 95.574135,56.984711 
	C95.574135,56.984711 95.125687,56.961895 94.637154,56.228729 
	C86.103065,56.204494 77.568970,56.180260 68.613007,55.995102 
	C68.613007,55.995102 68.162384,55.966530 68.030396,55.107533 
	C67.965729,53.084614 67.901062,51.061699 67.991074,48.172676 
	C67.660477,45.598404 66.958107,43.009182 67.060928,40.452339 
	C67.634254,26.196140 63.223370,25.707008 51.977821,25.909746 
	C48.282326,25.976368 45.964203,27.396770 44.904881,30.640215 
	C44.023750,33.338089 43.716785,36.223492 43.003494,39.949402 
	C43.056423,47.952961 43.109352,55.956516 43.000988,64.392830 
	C43.000988,64.392830 42.963665,64.853149 42.506294,64.956215 
	C42.506294,64.956215 42.047791,64.858307 42.034733,64.958847 
z"/>
<path fill="#2B2C83" opacity="1.000000" stroke="none" 
	d="
M42.963665,64.853149 
	C42.963665,64.853149 43.000988,64.392830 43.343517,63.859711 
	C43.509197,55.226337 43.332348,47.126083 43.155495,39.025829 
	C43.716785,36.223492 44.023750,33.338089 44.904881,30.640215 
	C45.964203,27.396770 48.282326,25.976368 51.977821,25.909746 
	C63.223370,25.707008 67.634254,26.196140 67.060928,40.452339 
	C66.958107,43.009182 67.660477,45.598404 67.660721,48.886017 
	C67.607704,51.721748 67.885048,53.844139 68.162384,55.966530 
	C68.162384,55.966530 68.613007,55.995102 69.140121,56.339127 
	C78.153389,56.776066 86.639534,56.868980 95.125687,56.961899 
	C95.125687,56.961895 95.574135,56.984711 95.917130,57.265457 
	C96.512459,57.776318 96.808777,57.905750 97.149078,57.934505 
	C97.149078,57.934505 97.062523,57.948811 97.050949,58.208092 
	C97.310310,58.973423 97.581238,59.479469 97.852158,59.985516 
	C97.852158,59.985516 98.005081,60.412834 98.007370,61.116570 
	C98.028313,71.583946 98.046967,81.347595 98.065620,91.111237 
	C98.065620,91.111237 98.052307,91.029640 97.813568,91.183792 
	C97.405670,91.930435 97.236511,92.522911 97.067345,93.115395 
	C97.067345,93.115395 97.052635,93.031311 96.812592,93.183769 
	C96.404884,93.930870 96.237236,94.525505 96.069580,95.120148 
	C96.069580,95.120148 96.051834,95.027885 95.817322,95.178925 
	C95.408234,95.922394 95.233665,96.514816 95.059097,97.107239 
	C95.059097,97.107239 95.043373,97.028290 94.803101,97.179932 
	C94.397247,97.924301 94.231674,98.517021 94.066101,99.109741 
	C94.066093,99.109741 94.038651,99.030861 93.897507,99.091248 
	C93.659828,99.229897 93.468994,99.352028 93.481758,99.379478 
	C93.579712,99.590111 93.717232,99.782333 93.842461,99.980278 
	C91.419960,103.293144 89.207634,106.793030 86.491936,109.845016 
	C84.990639,111.532211 82.645958,112.468948 80.008347,113.517029 
	C69.519501,113.205742 59.703793,113.121407 49.888084,113.037079 
	C47.774960,112.049347 44.812840,111.638618 43.685989,109.980583 
	C36.163383,98.911942 28.867140,87.679123 21.838699,76.289001 
	C17.874348,69.864471 19.795582,62.630489 25.840336,58.715244 
	C29.027534,56.650860 36.707165,58.561028 39.997829,62.762383 
	C40.542583,63.552822 40.838787,63.755722 41.134995,63.958622 
	C41.134995,63.958622 41.033504,63.965710 41.139351,64.167862 
	C41.542149,64.565041 41.839096,64.760071 42.136047,64.955093 
	C42.136047,64.955093 42.034733,64.958847 42.114632,65.095757 
	C42.450905,65.106163 42.707287,64.979652 42.963665,64.853149 
M89.453865,87.601509 
	C89.616119,86.702019 89.778374,85.802521 89.957191,84.979614 
	C89.957191,84.979614 89.878868,84.981636 90.527748,84.443489 
	C90.297470,78.307320 90.067192,72.171158 89.391693,66.003456 
	C89.391693,66.003456 88.974915,65.843735 88.339951,65.317192 
	C79.522339,65.224365 70.704720,65.131546 61.090572,64.975647 
	C60.394108,63.149330 59.222633,61.358013 59.085033,59.490517 
	C58.546280,52.178478 58.298565,44.843739 58.017849,37.514557 
	C57.905014,34.568680 56.588531,33.911602 53.747124,34.762310 
	C53.512314,35.224731 53.277504,35.687149 53.010826,36.591606 
	C53.010826,36.591606 52.860313,37.008450 52.203747,37.432732 
	C52.083878,46.280006 51.964008,55.127285 51.980259,64.867508 
	C51.653252,68.276627 51.574444,71.735321 50.907089,75.076462 
	C50.500175,77.113716 49.445660,80.360306 48.221478,80.588028 
	C46.291096,80.947128 43.485870,79.744789 41.916199,78.277687 
	C38.107586,74.717934 34.797478,70.624825 31.286510,66.746620 
	C30.720053,66.914665 30.153593,67.082710 29.587133,67.250755 
	C29.822489,69.066910 29.761690,70.992950 30.382452,72.666115 
	C30.925461,74.129700 32.303623,75.263809 33.194370,76.621216 
	C38.493603,84.696701 43.758411,92.794777 49.259480,101.381386 
	C49.559517,101.574112 49.859558,101.766846 50.604916,102.060303 
	C50.892529,102.232658 51.039642,102.486450 51.248001,103.349808 
	C51.556328,103.551491 51.864651,103.753166 52.608723,103.989449 
	C52.608723,103.989449 53.016987,104.145630 53.648335,104.680077 
	C59.743908,104.786270 65.840622,105.004364 71.934471,104.942093 
	C74.283577,104.918083 76.626160,104.256966 79.239326,103.267845 
	C82.112694,99.167961 84.986069,95.068085 88.451027,90.593437 
	C88.612617,89.692162 88.774200,88.790894 88.952667,87.977051 
	C88.952667,87.977051 88.863632,87.977859 89.453865,87.601509 
z"/>
<path fill="#E85514" opacity="1.000000" stroke="none" 
	d="
M36.966400,15.864372 
	C37.421860,15.292025 37.877319,14.719678 38.920135,14.049504 
	C40.000412,13.602610 40.493328,13.253541 40.986244,12.904472 
	C40.986244,12.904472 40.983555,12.982902 41.196991,12.885938 
	C41.597919,12.494813 41.785404,12.200652 41.972889,11.906490 
	C41.972889,11.906490 41.985622,11.981457 42.269672,11.963510 
	C43.028378,11.589499 43.503029,11.233435 43.977684,10.877371 
	C43.977684,10.877370 43.979015,10.957666 44.363052,10.970387 
	C50.864193,10.639466 56.981293,10.295825 63.098396,9.952185 
	C68.936691,9.927053 72.401001,13.973665 75.809677,17.778540 
	C76.467636,18.512976 75.948196,21.526428 75.046944,22.148508 
	C73.671982,23.097565 71.490982,22.878851 69.184433,22.799072 
	C68.488518,22.214127 68.214462,22.079515 67.894501,22.038336 
	C67.894501,22.038336 67.973442,22.029661 67.875687,21.817215 
	C67.483238,21.413336 67.188553,21.221903 66.893867,21.030470 
	C66.893867,21.030470 66.984070,21.022650 66.828156,20.791573 
	C66.082069,20.391077 65.491890,20.221661 64.901718,20.052246 
	C64.901718,20.052246 64.980026,20.036427 64.819641,19.794823 
	C64.053627,19.378429 63.448002,19.203640 62.842377,19.028851 
	C62.842377,19.028851 62.425499,18.998470 62.032181,18.698936 
	C61.060371,18.283989 60.481876,18.168577 59.903381,18.053165 
	C59.903381,18.053165 59.984909,18.033112 59.739182,17.760303 
	C56.320957,17.941792 53.148464,18.396090 49.975967,18.850388 
	C49.975967,18.850388 49.573940,18.995275 49.036331,19.021944 
	C48.005108,19.405005 47.511494,19.761396 47.017883,20.117790 
	C47.017883,20.117790 47.024776,20.035728 46.744148,20.051872 
	C45.973160,20.657982 45.482796,21.247950 44.992428,21.837917 
	C38.373962,24.899590 36.905342,24.443226 35.410789,18.312712 
	C36.187580,17.211657 36.576992,16.538013 36.966400,15.864372 
z"/>
<path fill="#212264" opacity="1.000000" stroke="none" 
	d="
M50.111252,113.418571 
	C59.703793,113.121407 69.519501,113.205742 79.652512,113.553726 
	C70.091347,113.811607 60.212887,113.805840 50.111252,113.418571 
z"/>
<path fill="#222268" opacity="1.000000" stroke="none" 
	d="
M98.434067,90.871666 
	C98.046967,81.347595 98.028313,71.583946 98.024078,61.342880 
	C98.361305,62.367893 98.957062,63.869484 98.961678,65.372894 
	C98.987526,73.792381 98.870644,82.212318 98.434067,90.871666 
z"/>
<path fill="#212267" opacity="1.000000" stroke="none" 
	d="
M94.881424,56.595314 
	C86.639534,56.868980 78.153389,56.776066 69.351059,56.419586 
	C77.568970,56.180260 86.103065,56.204494 94.881424,56.595314 
z"/>
<path fill="#C84A11" opacity="1.000000" stroke="none" 
	d="
M62.899437,9.602663 
	C56.981293,10.295825 50.864193,10.639466 44.323433,10.963861 
	C49.900646,7.423881 56.199913,7.219831 62.899437,9.602663 
z"/>
<path fill="#232369" opacity="1.000000" stroke="none" 
	d="
M43.079498,39.487617 
	C43.332348,47.126083 43.509197,55.226337 43.424164,63.643333 
	C43.109352,55.956516 43.056423,47.952961 43.079498,39.487617 
z"/>
<path fill="#CB4B11" opacity="1.000000" stroke="none" 
	d="
M50.391754,18.903118 
	C53.148464,18.396090 56.320957,17.941792 59.743656,17.802044 
	C56.931751,18.396345 53.869644,18.676098 50.391754,18.903118 
z"/>
<path fill="#212267" opacity="1.000000" stroke="none" 
	d="
M68.096390,55.537033 
	C67.885048,53.844139 67.607704,51.721748 67.583374,49.319069 
	C67.901062,51.061699 67.965729,53.084614 68.096390,55.537033 
z"/>
<path fill="#CB4B11" opacity="1.000000" stroke="none" 
	d="
M45.292633,21.849861 
	C45.482796,21.247950 45.973160,20.657982 46.784042,20.062073 
	C46.600655,20.658022 46.096748,21.259914 45.292633,21.849861 
z"/>
<path fill="#C84A11" opacity="1.000000" stroke="none" 
	d="
M36.689331,15.981222 
	C36.576992,16.538013 36.187580,17.211657 35.482468,17.938007 
	C35.581936,17.359833 35.997101,16.728952 36.689331,15.981222 
z"/>
<path fill="#222268" opacity="1.000000" stroke="none" 
	d="
M94.356216,98.978081 
	C94.231674,98.517021 94.397247,97.924301 94.843353,97.180145 
	C94.964699,97.634613 94.805511,98.240517 94.356216,98.978081 
z"/>
<path fill="#222268" opacity="1.000000" stroke="none" 
	d="
M95.342072,96.966537 
	C95.233665,96.514816 95.408234,95.922394 95.864288,95.179108 
	C95.972206,95.627434 95.798622,96.226631 95.342072,96.966537 
z"/>
<path fill="#222268" opacity="1.000000" stroke="none" 
	d="
M96.361023,94.988678 
	C96.237236,94.525505 96.404884,93.930870 96.855225,93.185883 
	C96.976089,93.642769 96.814278,94.249985 96.361023,94.988678 
z"/>
<path fill="#222268" opacity="1.000000" stroke="none" 
	d="
M97.354126,92.979263 
	C97.236511,92.522911 97.405670,91.930435 97.854828,91.186371 
	C97.970184,91.637566 97.805542,92.240349 97.354126,92.979263 
z"/>
<path fill="#C84A11" opacity="1.000000" stroke="none" 
	d="
M40.664909,12.946287 
	C40.493328,13.253541 40.000412,13.602610 39.185020,13.959206 
	C39.356220,13.640523 39.849899,13.314312 40.664909,12.946287 
z"/>
<path fill="#CB4B11" opacity="1.000000" stroke="none" 
	d="
M65.033867,20.341829 
	C65.491890,20.221661 66.082069,20.391077 66.827744,20.836838 
	C66.377510,20.952595 65.771759,20.792004 65.033867,20.341829 
z"/>
<path fill="#212267" opacity="1.000000" stroke="none" 
	d="
M97.922066,59.668068 
	C97.581238,59.479469 97.310310,58.973423 97.063660,58.166111 
	C97.389282,58.360104 97.690628,58.855362 97.922066,59.668068 
z"/>
<path fill="#CB4B11" opacity="1.000000" stroke="none" 
	d="
M60.043114,18.343996 
	C60.481876,18.168577 61.060371,18.283989 61.835625,18.627918 
	C61.415874,18.782566 60.799358,18.708696 60.043114,18.343996 
z"/>
<path fill="#CB4B11" opacity="1.000000" stroke="none" 
	d="
M47.339439,20.065422 
	C47.511494,19.761396 48.005108,19.405005 48.823406,19.039722 
	C48.652390,19.358242 48.156693,19.685650 47.339439,20.065422 
z"/>
<path fill="#CB4B11" opacity="1.000000" stroke="none" 
	d="
M62.986954,19.321175 
	C63.448002,19.203640 64.053627,19.378429 64.821136,19.834742 
	C64.365860,19.948677 63.748695,19.781086 62.986954,19.321175 
z"/>
<path fill="#C84A11" opacity="1.000000" stroke="none" 
	d="
M43.664291,10.929995 
	C43.503029,11.233435 43.028378,11.589499 42.234978,11.947956 
	C42.394459,11.627771 42.872681,11.305195 43.664291,10.929995 
z"/>
<path fill="#222268" opacity="1.000000" stroke="none" 
	d="
M93.923676,99.750504 
	C93.717232,99.782333 93.579712,99.590111 93.481758,99.379478 
	C93.468994,99.352028 93.659828,99.229897 93.938461,99.099419 
	C94.120552,99.047211 94.004898,99.520721 93.923676,99.750504 
z"/>
<path fill="#C84A11" opacity="1.000000" stroke="none" 
	d="
M41.707664,11.979834 
	C41.785404,12.200652 41.597919,12.494813 41.158085,12.880871 
	C41.084637,12.666238 41.263538,12.359707 41.707664,11.979834 
z"/>
<path fill="#232369" opacity="1.000000" stroke="none" 
	d="
M42.042015,64.696899 
	C41.839096,64.760071 41.542149,64.565041 41.143364,64.117157 
	C41.343685,64.055756 41.645836,64.247231 42.042015,64.696899 
z"/>
<path fill="#232369" opacity="1.000000" stroke="none" 
	d="
M42.734978,64.904678 
	C42.707287,64.979652 42.450905,65.106163 42.121159,65.045486 
	C42.047791,64.858307 42.506294,64.956215 42.734978,64.904678 
z"/>
<path fill="#232369" opacity="1.000000" stroke="none" 
	d="
M41.039692,63.697937 
	C40.838787,63.755722 40.542583,63.552822 40.140820,63.096115 
	C40.338303,63.040627 40.641346,63.238941 41.039692,63.697937 
z"/>
<path fill="#212267" opacity="1.000000" stroke="none" 
	d="
M97.049896,57.678993 
	C96.808777,57.905750 96.512459,57.776318 96.129745,57.337605 
	C96.316467,57.227165 96.633591,57.325325 97.049896,57.678993 
z"/>
<path fill="#CB4B11" opacity="1.000000" stroke="none" 
	d="
M67.979637,22.285904 
	C68.214462,22.079515 68.488518,22.214127 68.841782,22.637636 
	C68.666199,22.733225 68.365486,22.633348 67.979637,22.285904 
z"/>
<path fill="#CB4B11" opacity="1.000000" stroke="none" 
	d="
M66.975418,21.292786 
	C67.188553,21.221903 67.483238,21.413336 67.873749,21.856878 
	C67.665375,21.924360 67.361168,21.739733 66.975418,21.292786 
z"/>
<path fill="#FFFFFF" opacity="1.000000" stroke="none" 
	d="
M52.860313,37.008450 
	C52.860313,37.008450 53.010826,36.591606 53.267342,36.276131 
	C53.700710,35.678310 53.877560,35.395962 54.054409,35.113613 
	C56.588531,33.911602 57.905014,34.568680 58.017849,37.514557 
	C58.298565,44.843739 58.546280,52.178478 59.085033,59.490517 
	C59.222633,61.358013 60.394108,63.149330 61.715767,65.385750 
	C71.218941,65.811813 80.096931,65.827774 88.974915,65.843735 
	C88.974915,65.843735 89.391693,66.003456 89.677895,66.481735 
	C89.935692,72.967216 89.907280,78.974426 89.878868,84.981636 
	C89.878868,84.981636 89.957191,84.979614 89.635834,85.101143 
	C89.164192,86.141068 89.013916,87.059464 88.863632,87.977859 
	C88.863632,87.977859 88.952667,87.977051 88.629082,88.092819 
	C88.156807,89.128456 88.008118,90.048332 87.859436,90.968201 
	C84.986069,95.068085 82.112694,99.167961 78.640991,103.626701 
	C69.700760,104.038910 61.358875,104.092270 53.016987,104.145630 
	C53.016987,104.145630 52.608723,103.989449 52.289192,103.708923 
	C51.661861,103.226158 51.354057,103.023926 51.046257,102.821686 
	C51.039642,102.486450 50.892529,102.232658 50.277435,101.754440 
	C49.644897,101.260803 49.339840,101.073029 49.034782,100.885262 
	C43.758411,92.794777 38.493603,84.696701 33.194370,76.621216 
	C32.303623,75.263809 30.925461,74.129700 30.382452,72.666115 
	C29.761690,70.992950 29.822489,69.066910 29.587133,67.250755 
	C30.153593,67.082710 30.720053,66.914665 31.286510,66.746620 
	C34.797478,70.624825 38.107586,74.717934 41.916199,78.277687 
	C43.485870,79.744789 46.291096,80.947128 48.221478,80.588028 
	C49.445660,80.360306 50.500175,77.113716 50.907089,75.076462 
	C51.574444,71.735321 51.653252,68.276627 51.987877,63.959156 
	C52.283768,54.370018 52.572041,45.689236 52.860313,37.008450 
z"/>
<path fill="#24246C" opacity="1.000000" stroke="none" 
	d="
M52.532028,37.220589 
	C52.572041,45.689236 52.283768,54.370018 51.919823,63.512680 
	C51.964008,55.127285 52.083878,46.280006 52.532028,37.220589 
z"/>
<path fill="#222369" opacity="1.000000" stroke="none" 
	d="
M88.657433,65.580467 
	C80.096931,65.827774 71.218941,65.811813 62.114029,65.417282 
	C70.704720,65.131546 79.522339,65.224365 88.657433,65.580467 
z"/>
<path fill="#23246C" opacity="1.000000" stroke="none" 
	d="
M53.332661,104.412857 
	C61.358875,104.092270 69.700760,104.038910 78.507187,103.935837 
	C76.626160,104.256966 74.283577,104.918083 71.934471,104.942093 
	C65.840622,105.004364 59.743908,104.786270 53.332661,104.412857 
z"/>
<path fill="#222369" opacity="1.000000" stroke="none" 
	d="
M90.203308,84.712563 
	C89.907280,78.974426 89.935692,72.967216 89.900505,66.497498 
	C90.067192,72.171158 90.297470,78.307320 90.203308,84.712563 
z"/>
<path fill="#222369" opacity="1.000000" stroke="none" 
	d="
M88.155228,90.780823 
	C88.008118,90.048332 88.156807,89.128456 88.620644,88.049103 
	C88.774200,88.790894 88.612617,89.692162 88.155228,90.780823 
z"/>
<path fill="#222369" opacity="1.000000" stroke="none" 
	d="
M89.158752,87.789688 
	C89.013916,87.059464 89.164192,86.141068 89.627548,85.062851 
	C89.778374,85.802521 89.616119,86.702019 89.158752,87.789688 
z"/>
<path fill="#24246C" opacity="1.000000" stroke="none" 
	d="
M53.900764,34.937962 
	C53.877560,35.395962 53.700710,35.678310 53.283279,36.055115 
	C53.277504,35.687149 53.512314,35.224731 53.900764,34.937962 
z"/>
<path fill="#23246C" opacity="1.000000" stroke="none" 
	d="
M49.147133,101.133324 
	C49.339840,101.073029 49.644897,101.260803 50.054775,101.704071 
	C49.859558,101.766846 49.559517,101.574112 49.147133,101.133324 
z"/>
<path fill="#23246C" opacity="1.000000" stroke="none" 
	d="
M51.147125,103.085754 
	C51.354057,103.023926 51.661861,103.226158 52.071320,103.691620 
	C51.864651,103.753166 51.556328,103.551491 51.147125,103.085754 
z"/>
</svg>