<svg version="1.1" id="Layer_1" xmlns="http://www.w3.org/2000/svg" xmlns:xlink="http://www.w3.org/1999/xlink" x="0px" y="0px"
	 width="100%" viewBox="0 0 120 120" enable-background="new 0 0 120 120" xml:space="preserve">
<path fill="#FFFFFF" opacity="1.000000" stroke="none" 
	d="
M66.000000,121.000000 
	C44.000000,121.000000 22.500000,121.000000 1.000000,121.000000 
	C1.000000,81.000000 1.000000,41.000000 1.000000,1.000000 
	C41.000000,1.000000 81.000000,1.000000 121.000000,1.000000 
	C121.000000,41.000000 121.000000,81.000000 121.000000,121.000000 
	C102.833336,121.000000 84.666664,121.000000 66.000000,121.000000 
M64.964699,118.970413 
	C77.127563,118.980263 89.290855,119.047218 101.452934,118.954147 
	C104.037041,118.934372 106.678368,118.560928 109.170006,117.891434 
	C110.268677,117.596214 111.794388,116.216789 111.879410,115.222939 
	C113.194260,99.853043 108.137154,88.209953 90.623947,83.956200 
	C85.834778,82.792969 80.522026,82.291939 77.966568,76.700333 
	C83.083900,69.860031 88.441658,63.089096 93.284096,55.967747 
	C94.596405,54.037834 94.844749,51.023045 94.716789,48.550945 
	C94.456413,43.520458 93.097618,38.519630 93.105766,33.508064 
	C93.123070,22.861937 88.177025,14.843665 79.947235,9.135206 
	C68.637939,1.290695 56.014248,0.625612 43.910896,6.829992 
	C33.501495,12.166025 26.640839,20.653963 26.933573,33.396626 
	C27.027315,37.477299 25.965979,41.590439 26.123837,45.661945 
	C26.264896,49.300114 26.492407,53.389961 28.203800,56.421177 
	C32.252731,63.592640 37.206345,70.253326 41.849342,77.203094 
	C40.033718,80.734848 36.925068,82.227386 32.879700,83.106178 
	C15.869674,86.801369 7.467044,95.389862 7.963297,111.096550 
	C8.181807,118.012520 8.661566,118.893242 15.935339,118.952744 
	C29.259718,119.061737 42.586403,118.889030 56.808716,118.976631 
	C59.219677,118.928902 61.630634,118.881165 64.964699,118.970413 
z"/>
<path fill="#2B2C84" opacity="1.000000" stroke="none" 
	d="
M55.912125,118.833794 
	C42.586403,118.889030 29.259718,119.061737 15.935339,118.952744 
	C8.661566,118.893242 8.181807,118.012520 7.963297,111.096550 
	C7.467044,95.389862 15.869674,86.801369 32.879700,83.106178 
	C36.925068,82.227386 40.033718,80.734848 41.849342,77.203094 
	C37.206345,70.253326 32.252731,63.592640 28.203800,56.421177 
	C26.492407,53.389961 26.264896,49.300114 26.123837,45.661945 
	C25.965979,41.590439 27.027315,37.477299 26.933573,33.396626 
	C26.640839,20.653963 33.501495,12.166025 43.910896,6.829992 
	C56.014248,0.625612 68.637939,1.290695 79.947235,9.135206 
	C88.177025,14.843665 93.123070,22.861937 93.105766,33.508064 
	C93.097618,38.519630 94.456413,43.520458 94.716789,48.550945 
	C94.844749,51.023045 94.596405,54.037834 93.284096,55.967747 
	C88.441658,63.089096 83.083900,69.860031 77.966568,76.700333 
	C80.522026,82.291939 85.834778,82.792969 90.623947,83.956200 
	C108.137154,88.209953 113.194260,99.853043 111.879410,115.222939 
	C111.794388,116.216789 110.268677,117.596214 109.170006,117.891434 
	C106.678368,118.560928 104.037041,118.934372 101.452934,118.954147 
	C89.290855,119.047218 77.127563,118.980263 64.690437,118.548752 
	C64.953979,115.011208 65.491791,111.895332 66.488052,108.876877 
	C78.569481,108.974289 90.192451,108.974289 103.185715,108.974289 
	C101.432053,105.476959 100.494705,102.540604 98.710640,100.269363 
	C94.866135,95.375031 89.093788,94.206726 83.332985,92.803841 
	C80.717377,92.166870 79.403175,92.463943 77.282341,93.987991 
	C74.204689,96.199600 70.461403,97.484917 66.687912,98.964325 
	C66.082016,95.558472 65.790230,92.353584 65.880615,89.067261 
	C68.094551,87.829178 69.926300,86.672523 71.758049,85.515877 
	C71.780624,85.038422 71.803207,84.560966 71.825790,84.083519 
	C69.873642,83.739540 67.930817,83.184006 65.967308,83.097427 
	C62.335915,82.937309 58.692379,83.061096 55.053963,83.048752 
	C52.443489,83.039902 49.406815,81.915443 48.170326,86.313774 
	C50.549889,87.228775 53.035828,88.184677 55.414215,89.530258 
	C55.129837,93.268440 54.953007,96.616959 54.411644,99.956650 
	C50.737259,98.299881 47.002090,97.167198 44.224445,94.874481 
	C40.695015,91.961227 37.509789,92.015472 33.690884,93.637718 
	C31.943758,94.379890 29.919281,94.440033 28.101660,95.050766 
	C22.316643,96.994568 17.895718,103.165329 18.285002,108.865128 
	C30.501192,108.865128 42.738716,108.865128 55.302895,109.129677 
	C55.723740,112.540749 55.817932,115.687271 55.912125,118.833794 
M72.458519,37.975945 
	C70.568367,37.536991 68.114410,36.112057 66.879173,36.818401 
	C58.586575,41.560368 49.151455,41.687126 40.287575,44.041775 
	C38.451832,44.529434 35.286285,45.643494 35.297455,46.432568 
	C35.336464,49.188560 35.993992,52.218307 37.361820,54.601463 
	C39.071346,57.579945 42.329571,59.714085 43.850750,62.748383 
	C50.317509,75.647667 64.720963,76.873062 73.761681,66.653862 
	C77.869987,62.010014 81.765602,57.123444 85.195862,51.972797 
	C86.049858,50.690498 85.465919,47.095539 84.257751,46.053249 
	C80.862511,43.124165 76.797340,40.971619 72.458519,37.975945 
M42.714245,33.000301 
	C50.129520,32.741272 57.192451,31.284405 63.480198,27.053051 
	C66.658333,24.914316 69.834480,24.167385 73.326340,26.706745 
	C76.317627,28.882080 79.579323,30.685593 82.761856,32.678875 
	C82.128822,20.572857 75.016991,15.718487 59.609398,13.284891 
	C49.865307,11.745832 39.907429,20.623697 36.018639,34.174744 
	C38.142590,33.747108 39.985973,33.375961 42.714245,33.000301 
z"/>
<path fill="#E85615" opacity="1.000000" stroke="none" 
	d="
M65.498436,89.148697 
	C65.790230,92.353584 66.082016,95.558472 66.558105,99.266251 
	C63.328911,102.521332 64.726418,105.654129 66.029594,108.779457 
	C65.491791,111.895332 64.953979,115.011208 64.228882,118.480255 
	C61.630634,118.881165 59.219677,118.928902 56.360420,118.905212 
	C55.817932,115.687271 55.723740,112.540749 55.323341,108.761513 
	C55.957317,105.377563 57.565254,102.606621 54.776176,99.965469 
	C54.953007,96.616959 55.129837,93.268440 55.625057,89.274628 
	C59.128445,88.802452 62.313438,88.975578 65.498436,89.148697 
z"/>
<path fill="#FFFFFF" opacity="1.000000" stroke="none" 
	d="
M72.727440,38.244392 
	C76.797340,40.971619 80.862511,43.124165 84.257751,46.053249 
	C85.465919,47.095539 86.049858,50.690498 85.195862,51.972797 
	C81.765602,57.123444 77.869987,62.010014 73.761681,66.653862 
	C64.720963,76.873062 50.317509,75.647667 43.850750,62.748383 
	C42.329571,59.714085 39.071346,57.579945 37.361820,54.601463 
	C35.993992,52.218307 35.336464,49.188560 35.297455,46.432568 
	C35.286285,45.643494 38.451832,44.529434 40.287575,44.041775 
	C49.151455,41.687126 58.586575,41.560368 66.879173,36.818401 
	C68.114410,36.112057 70.568367,37.536991 72.727440,38.244392 
z"/>
<path fill="#FFFFFF" opacity="1.000000" stroke="none" 
	d="
M42.271801,33.002556 
	C39.985973,33.375961 38.142590,33.747108 36.018639,34.174744 
	C39.907429,20.623697 49.865307,11.745832 59.609398,13.284891 
	C75.016991,15.718487 82.128822,20.572857 82.761856,32.678875 
	C79.579323,30.685593 76.317627,28.882080 73.326340,26.706745 
	C69.834480,24.167385 66.658333,24.914316 63.480198,27.053051 
	C57.192451,31.284405 50.129520,32.741272 42.271801,33.002556 
z"/>
<path fill="#FFFFFF" opacity="1.000000" stroke="none" 
	d="
M54.411644,99.956650 
	C57.565254,102.606621 55.957317,105.377563 54.996689,108.496964 
	C42.738716,108.865128 30.501192,108.865128 18.285002,108.865128 
	C17.895718,103.165329 22.316643,96.994568 28.101660,95.050766 
	C29.919281,94.440033 31.943758,94.379890 33.690884,93.637718 
	C37.509789,92.015472 40.695015,91.961227 44.224445,94.874481 
	C47.002090,97.167198 50.737259,98.299881 54.411644,99.956650 
z"/>
<path fill="#FFFFFF" opacity="1.000000" stroke="none" 
	d="
M66.488052,108.876877 
	C64.726418,105.654129 63.328911,102.521332 66.872208,99.467224 
	C70.461403,97.484917 74.204689,96.199600 77.282341,93.987991 
	C79.403175,92.463943 80.717377,92.166870 83.332985,92.803841 
	C89.093788,94.206726 94.866135,95.375031 98.710640,100.269363 
	C100.494705,102.540604 101.432053,105.476959 103.185715,108.974289 
	C90.192451,108.974289 78.569481,108.974289 66.488052,108.876877 
z"/>
<path fill="#FFFFFF" opacity="1.000000" stroke="none" 
	d="
M65.880615,89.067261 
	C62.313438,88.975578 59.128445,88.802452 55.732605,88.884956 
	C53.035828,88.184677 50.549889,87.228775 48.170326,86.313774 
	C49.406815,81.915443 52.443489,83.039902 55.053963,83.048752 
	C58.692379,83.061096 62.335915,82.937309 65.967308,83.097427 
	C67.930817,83.184006 69.873642,83.739540 71.825790,84.083519 
	C71.803207,84.560966 71.780624,85.038422 71.758049,85.515877 
	C69.926300,86.672523 68.094551,87.829178 65.880615,89.067261 
z"/>
</svg>