<svg version="1.1" id="Layer_1" xmlns="http://www.w3.org/2000/svg" xmlns:xlink="http://www.w3.org/1999/xlink" x="0px" y="0px"
	 width="100%" viewBox="0 0 120 120" enable-background="new 0 0 120 120" xml:space="preserve">
<path fill="#FFFFFF" opacity="1.000000" stroke="none" 
	d="
M1.000000,114.000000 
	C1.000000,76.381149 1.000000,38.762295 1.000000,1.071721 
	C40.901302,1.071721 80.802765,1.071721 121.000000,1.071721 
	C121.000000,38.020370 121.000000,75.041527 120.596138,112.520691 
	C115.591507,111.143562 115.993263,107.259628 115.953110,103.307846 
	C115.713875,79.762077 115.367455,56.217102 114.923233,32.674385 
	C114.893349,31.090847 113.765701,29.528021 112.911484,27.581236 
	C104.464012,27.198099 96.253693,27.189289 87.748703,27.161236 
	C86.956573,27.728348 86.459099,28.314705 85.582184,29.124889 
	C85.190704,38.230408 85.178658,47.112095 85.088791,56.457085 
	C85.061409,69.267517 85.111855,81.614655 85.085114,94.418564 
	C85.003685,97.536018 85.178101,100.211319 84.961601,102.854607 
	C84.320908,110.677116 83.349388,111.482712 75.352852,110.402313 
	C75.352852,89.103363 75.352852,67.658279 75.352852,46.001068 
	C65.882263,46.001068 57.417049,46.069080 48.954201,45.957428 
	C46.578415,45.926083 45.473709,46.529194 46.093056,49.492531 
	C45.971478,70.293076 45.923676,90.632149 45.425339,110.982468 
	C42.383663,110.993729 39.792515,110.993729 37.000954,110.993729 
	C37.000954,109.039078 37.033569,107.724617 36.995834,106.412178 
	C36.672153,95.154564 36.425140,83.892967 35.878822,72.645988 
	C35.817390,71.381256 34.087395,69.189240 33.054054,69.142799 
	C26.061140,68.828529 19.044836,69.088173 12.041699,68.923691 
	C8.862410,68.849007 8.132544,70.667549 8.019824,73.153114 
	C7.637973,81.573280 7.109033,89.995369 7.060163,98.419174 
	C7.024843,104.507462 8.140315,110.783134 1.000000,114.000000 
z"/>
<path fill="#2B2C84" opacity="1.000000" stroke="none" 
	d="
M1.000000,114.497902 
	C8.140315,110.783134 7.024843,104.507462 7.060163,98.419174 
	C7.109033,89.995369 7.637973,81.573280 8.019824,73.153114 
	C8.132544,70.667549 8.862410,68.849007 12.041699,68.923691 
	C19.044836,69.088173 26.061140,68.828529 33.054054,69.142799 
	C34.087395,69.189240 35.817390,71.381256 35.878822,72.645988 
	C36.425140,83.892967 36.672153,95.154564 36.995834,106.412178 
	C37.033569,107.724617 37.000954,109.039078 37.000954,110.993729 
	C39.792515,110.993729 42.383663,110.993729 45.751053,110.717400 
	C46.683903,109.640747 46.976070,108.840614 46.977215,108.040070 
	C47.003822,89.455475 47.012836,70.870789 46.964146,52.286285 
	C46.961300,51.200520 46.444473,50.116100 46.166840,49.031055 
	C45.473709,46.529194 46.578415,45.926083 48.954201,45.957428 
	C57.417049,46.069080 65.882263,46.001068 75.352852,46.001068 
	C75.352852,67.658279 75.352852,89.103363 75.352852,110.402313 
	C83.349388,111.482712 84.320908,110.677116 84.961601,102.854607 
	C85.178101,100.211319 85.003685,97.536018 85.347641,94.102081 
	C85.786621,80.882141 85.885895,68.435463 85.988152,55.521278 
	C85.981300,46.336205 85.971466,37.618633 85.961624,28.901062 
	C86.459099,28.314705 86.956573,27.728348 88.065826,27.422565 
	C96.834610,27.787279 104.991623,27.871420 113.148628,27.955563 
	C113.765701,29.528021 114.893349,31.090847 114.923233,32.674385 
	C115.367455,56.217102 115.713875,79.762077 115.953110,103.307846 
	C115.993263,107.259628 115.591507,111.143562 120.596138,112.989349 
	C121.000000,115.656837 121.000000,118.313675 121.000000,120.977890 
	C81.000000,120.985260 41.000000,120.985260 1.000000,120.979469 
	C1.000000,118.981056 1.000000,116.988426 1.000000,114.497902 
M55.313663,88.663727 
	C55.209030,92.771255 54.926994,96.884338 55.055382,100.984573 
	C55.159817,104.319763 55.756065,107.639557 57.033760,110.982689 
	C59.621655,110.982689 62.209549,110.982689 64.694786,110.982689 
	C64.694786,92.638206 64.694786,74.933426 64.694786,57.331589 
	C61.653854,57.331589 58.927490,57.331589 55.837280,57.331589 
	C55.837280,67.784103 55.837280,77.905739 55.313663,88.663727 
M105.008759,52.144081 
	C104.590263,47.121330 104.171761,42.098583 103.765533,37.223061 
	C100.987206,37.223061 98.709122,37.223061 96.243546,37.223061 
	C96.243546,61.850037 96.243546,86.254662 96.243546,110.968102 
	C99.280548,110.968102 102.077835,110.968102 105.537651,110.449776 
	C105.693390,109.649445 105.983994,108.849297 105.985023,108.048767 
	C106.007187,90.797485 106.011879,73.546127 105.957726,56.294971 
	C105.954315,55.208134 105.442863,54.122887 105.008759,52.144081 
M26.999428,106.355469 
	C26.999428,97.291283 26.999428,88.227097 26.999428,79.354713 
	C23.606768,79.354713 20.882139,79.354713 18.335930,79.354713 
	C18.335930,90.088844 18.335930,100.465393 18.335930,111.742073 
	C21.172195,109.007439 26.924152,114.892609 26.999428,106.355469 
z"/>
<path fill="#262776" opacity="1.000000" stroke="none" 
	d="
M46.093060,49.492531 
	C46.444473,50.116100 46.961300,51.200520 46.964146,52.286285 
	C47.012836,70.870789 47.003822,89.455475 46.977215,108.040070 
	C46.976070,108.840614 46.683903,109.640747 46.201588,110.706146 
	C45.923676,90.632149 45.971478,70.293076 46.093060,49.492531 
z"/>
<path fill="#252672" opacity="1.000000" stroke="none" 
	d="
M85.985168,55.988781 
	C85.885895,68.435463 85.786621,80.882141 85.424820,93.645309 
	C85.111855,81.614655 85.061409,69.267517 85.293442,56.457054 
	C85.575905,55.993729 85.985168,55.988781 85.985168,55.988781 
z"/>
<path fill="#202163" opacity="1.000000" stroke="none" 
	d="
M85.988152,55.521278 
	C85.985168,55.988781 85.575905,55.993729 85.371262,55.993759 
	C85.178658,47.112095 85.190704,38.230408 85.582191,29.124889 
	C85.971466,37.618633 85.981300,46.336205 85.988152,55.521278 
z"/>
<path fill="#252672" opacity="1.000000" stroke="none" 
	d="
M112.911484,27.581236 
	C104.991623,27.871420 96.834610,27.787279 88.360489,27.441807 
	C96.253693,27.189289 104.464012,27.198099 112.911484,27.581236 
z"/>
<path fill="#FFFFFF" opacity="1.000000" stroke="none" 
	d="
M104.875114,110.968102 
	C102.077835,110.968102 99.280548,110.968102 96.243546,110.968102 
	C96.243546,86.254662 96.243546,61.850037 96.243546,37.223061 
	C98.709122,37.223061 100.987206,37.223061 103.765533,37.223061 
	C104.171761,42.098583 104.590263,47.121330 105.020081,53.052288 
	C104.979301,72.963028 104.927208,91.965569 104.875114,110.968102 
z"/>
<path fill="#FFFFFF" opacity="1.000000" stroke="none" 
	d="
M55.837280,88.027367 
	C55.837280,77.905739 55.837280,67.784103 55.837280,57.331589 
	C58.927490,57.331589 61.653854,57.331589 64.694786,57.331589 
	C64.694786,74.933426 64.694786,92.638206 64.694786,110.982689 
	C62.209549,110.982689 59.621655,110.982689 56.525101,110.511185 
	C55.956718,102.702240 55.896999,95.364807 55.837280,88.027367 
z"/>
<path fill="#FFFFFF" opacity="1.000000" stroke="none" 
	d="
M26.999380,106.837166 
	C26.924152,114.892609 21.172195,109.007439 18.335930,111.742073 
	C18.335930,100.465393 18.335930,90.088844 18.335930,79.354713 
	C20.882139,79.354713 23.606768,79.354713 26.999428,79.354713 
	C26.999428,88.227097 26.999428,97.291283 26.999380,106.837166 
z"/>
<path fill="#23246B" opacity="1.000000" stroke="none" 
	d="
M105.206383,110.708939 
	C104.927208,91.965569 104.979301,72.963028 105.099579,53.498695 
	C105.442863,54.122887 105.954315,55.208134 105.957726,56.294971 
	C106.011879,73.546127 106.007187,90.797485 105.985023,108.048767 
	C105.983994,108.849297 105.693390,109.649445 105.206383,110.708939 
z"/>
<path fill="#262776" opacity="1.000000" stroke="none" 
	d="
M55.575470,88.345551 
	C55.896999,95.364807 55.956718,102.702240 56.075325,110.502930 
	C55.756065,107.639557 55.159817,104.319763 55.055382,100.984573 
	C54.926994,96.884338 55.209030,92.771255 55.575470,88.345551 
z"/>
</svg>