<svg version="1.1" id="Layer_1" xmlns="http://www.w3.org/2000/svg" xmlns:xlink="http://www.w3.org/1999/xlink" x="0px" y="0px"
	 width="100%" viewBox="0 0 120 120" enable-background="new 0 0 120 120" xml:space="preserve">
<path fill="#FFFFFF" opacity="1.000000" stroke="none" 
	d="
M1.000000,44.000000 
	C1.000000,29.679821 1.000000,15.359643 1.000000,1.019732 
	C40.950127,1.019732 80.900261,1.019732 120.925201,1.019732 
	C120.925201,40.913303 120.925201,80.826782 120.925201,120.870132 
	C81.123665,120.870132 41.246769,120.870132 1.000000,120.870132 
	C1.000000,96.647018 1.000000,72.292168 1.344443,47.580631 
	C2.145973,47.822731 2.475171,48.683514 3.080349,48.978920 
	C7.991705,51.376343 12.879023,53.852795 17.930725,55.921658 
	C20.923988,57.147514 22.249273,58.710033 22.084223,62.112179 
	C21.786287,68.253441 21.999434,74.419510 21.999861,80.575218 
	C22.000441,88.943474 26.925169,96.071907 34.787636,98.962151 
	C49.709362,104.447365 65.083122,104.926010 80.135284,100.707863 
	C92.428764,97.262817 99.806549,91.561493 99.036636,76.316734 
	C98.801964,71.670212 99.254204,66.983566 98.921432,62.349087 
	C98.642807,58.468899 100.033768,56.439068 103.912994,56.432854 
	C104.320221,63.265038 104.612648,69.674026 105.014244,76.076172 
	C105.380013,81.907074 104.523903,87.314278 101.991661,92.779213 
	C100.509338,95.978271 100.940063,100.210007 101.133087,103.945000 
	C101.187073,104.989578 103.404251,106.599419 104.721573,106.696587 
	C105.863182,106.780792 107.413116,105.294441 108.271027,104.126503 
	C109.102493,102.994576 109.282097,101.383820 110.220909,98.561813 
	C110.696396,100.796173 110.919746,101.512444 110.992065,102.243637 
	C111.293495,105.291527 112.880501,106.318192 115.938438,106.061050 
	C119.190872,105.787537 118.789070,103.678497 119.050797,101.486603 
	C119.648987,96.476830 117.951813,92.192871 115.530655,87.995972 
	C114.762001,86.663544 114.080933,85.045189 114.066505,83.550865 
	C113.965233,73.064117 114.048889,62.575588 114.397491,51.950783 
	C116.479080,49.851555 118.236603,47.889175 119.994125,45.926788 
	C118.152290,44.327602 116.562515,42.146721 114.428436,41.222031 
	C98.564323,34.348160 82.538612,27.846718 66.684929,20.949560 
	C61.592537,18.734112 57.227409,19.735901 52.469349,21.797726 
	C43.306255,25.768394 33.903366,29.183907 24.722343,33.115517 
	C16.727346,36.539234 8.900916,40.356586 1.000000,44.000000 
z"/>
<path fill="#2B2C84" opacity="1.000000" stroke="none" 
	d="
M103.845757,56.006680 
	C100.033768,56.439068 98.642807,58.468899 98.921432,62.349087 
	C99.254204,66.983566 98.801964,71.670212 99.036636,76.316734 
	C99.806549,91.561493 92.428764,97.262817 80.135284,100.707863 
	C65.083122,104.926010 49.709362,104.447365 34.787636,98.962151 
	C26.925169,96.071907 22.000441,88.943474 21.999861,80.575218 
	C21.999434,74.419510 21.786287,68.253441 22.084223,62.112179 
	C22.249273,58.710033 20.923988,57.147514 17.930725,55.921658 
	C12.879023,53.852795 7.991705,51.376343 3.080349,48.978920 
	C2.475171,48.683514 2.145973,47.822731 1.344443,47.111973 
	C1.000000,46.250000 1.000000,45.500000 1.000000,44.375000 
	C8.900916,40.356586 16.727346,36.539234 24.722343,33.115517 
	C33.903366,29.183907 43.306255,25.768394 52.469349,21.797726 
	C57.227409,19.735901 61.592537,18.734112 66.684929,20.949560 
	C82.538612,27.846718 98.564323,34.348160 114.428436,41.222031 
	C116.562515,42.146721 118.152290,44.327602 119.994125,45.926788 
	C118.236603,47.889175 116.479080,49.851555 114.019302,51.811745 
	C110.159950,53.208591 107.002853,54.607635 103.845757,56.006680 
M42.451511,35.934174 
	C34.944176,39.144379 27.436842,42.354580 19.186487,45.882507 
	C20.440742,46.556248 20.925781,46.856861 21.441887,47.088146 
	C33.254868,52.382030 45.052219,57.711567 56.900459,62.925434 
	C59.831886,64.215424 62.556660,63.823112 65.615799,62.233578 
	C71.048897,59.410534 76.912010,57.423759 82.555023,54.993778 
	C89.118736,52.167336 95.639229,49.240543 102.831795,46.069244 
	C92.407845,41.727409 82.612419,38.358757 73.507675,33.653591 
	C64.523537,29.010754 56.252045,28.426575 47.595898,33.738079 
	C46.244652,34.567215 44.578579,34.883274 42.451511,35.934174 
M35.012093,87.520561 
	C36.932217,88.689507 38.726639,90.189903 40.792896,90.973526 
	C54.053608,96.002701 67.384850,95.314392 80.556671,90.710785 
	C87.576225,88.257423 89.999168,84.192795 89.999481,76.498512 
	C89.999680,71.840607 89.999519,67.182701 89.999519,62.011829 
	C85.394516,63.975357 81.109863,65.856873 76.782997,67.635719 
	C68.137283,71.190109 59.659687,76.757553 50.074429,70.003304 
	C49.161209,69.359802 48.061741,68.964836 47.019951,68.522232 
	C41.563248,66.203941 36.097267,63.907501 30.006409,61.338558 
	C30.006409,67.201469 29.555882,72.224640 30.158228,77.118217 
	C30.589626,80.622971 30.605383,84.783173 35.012093,87.520561 
z"/>
<path fill="#EA5614" opacity="1.000000" stroke="none" 
	d="
M103.912994,56.432854 
	C107.002853,54.607635 110.159950,53.208591 113.695236,51.948589 
	C114.048889,62.575588 113.965233,73.064117 114.066505,83.550865 
	C114.080933,85.045189 114.762001,86.663544 115.530655,87.995972 
	C117.951813,92.192871 119.648987,96.476830 119.050797,101.486603 
	C118.789070,103.678497 119.190872,105.787537 115.938438,106.061050 
	C112.880501,106.318192 111.293495,105.291527 110.992065,102.243637 
	C110.919746,101.512444 110.696396,100.796173 110.220909,98.561813 
	C109.282097,101.383820 109.102493,102.994576 108.271027,104.126503 
	C107.413116,105.294441 105.863182,106.780792 104.721573,106.696587 
	C103.404251,106.599419 101.187073,104.989578 101.133087,103.945000 
	C100.940063,100.210007 100.509338,95.978271 101.991661,92.779213 
	C104.523903,87.314278 105.380013,81.907074 105.014244,76.076172 
	C104.612648,69.674026 104.320221,63.265038 103.912994,56.432854 
z"/>
<path fill="#FFFFFF" opacity="1.000000" stroke="none" 
	d="
M42.754799,35.685379 
	C44.578579,34.883274 46.244652,34.567215 47.595898,33.738079 
	C56.252045,28.426575 64.523537,29.010754 73.507675,33.653591 
	C82.612419,38.358757 92.407845,41.727409 102.831795,46.069244 
	C95.639229,49.240543 89.118736,52.167336 82.555023,54.993778 
	C76.912010,57.423759 71.048897,59.410534 65.615799,62.233578 
	C62.556660,63.823112 59.831886,64.215424 56.900459,62.925434 
	C45.052219,57.711567 33.254868,52.382030 21.441887,47.088146 
	C20.925781,46.856861 20.440742,46.556248 19.186487,45.882507 
	C27.436842,42.354580 34.944176,39.144379 42.754799,35.685379 
z"/>
<path fill="#FFFFFF" opacity="1.000000" stroke="none" 
	d="
M34.744984,87.252182 
	C30.605383,84.783173 30.589626,80.622971 30.158228,77.118217 
	C29.555882,72.224640 30.006409,67.201469 30.006409,61.338558 
	C36.097267,63.907501 41.563248,66.203941 47.019951,68.522232 
	C48.061741,68.964836 49.161209,69.359802 50.074429,70.003304 
	C59.659687,76.757553 68.137283,71.190109 76.782997,67.635719 
	C81.109863,65.856873 85.394516,63.975357 89.999519,62.011829 
	C89.999519,67.182701 89.999680,71.840607 89.999481,76.498512 
	C89.999168,84.192795 87.576225,88.257423 80.556671,90.710785 
	C67.384850,95.314392 54.053608,96.002701 40.792896,90.973526 
	C38.726639,90.189903 36.932217,88.689507 34.744984,87.252182 
z"/>
</svg>